<svg xmlns="http://www.w3.org/2000/svg" width="222" height="85" fill="none" viewBox="0 0 222 85"><path fill="url(#paint0_radial_6080_20947)" d="M215.565 0C219.119 0 222 2.927 222 6.538c-1.777 0-3.217 1.464-3.217 3.27 0 1.805 1.44 3.269 3.217 3.269v1.634c-1.777 0-3.217 1.464-3.217 3.27 0 1.805 1.44 3.269 3.217 3.269v1.635c-1.777 0-3.217 1.463-3.217 3.269 0 1.805 1.44 3.27 3.217 3.27v1.634c-6.219 0-11.261 5.123-11.261 11.442 0 6.32 5.042 11.442 11.261 11.442v1.635c-1.777 0-3.217 1.464-3.217 3.27 0 1.805 1.44 3.268 3.217 3.268v1.635c-1.777 0-3.217 1.464-3.217 3.27 0 1.805 1.44 3.269 3.217 3.269v1.634c-1.777 0-3.217 1.464-3.217 3.27 0 1.805 1.44 3.269 3.217 3.269 0 3.61-2.881 6.538-6.435 6.538H6.435C2.88 85 0 82.073 0 78.462c1.777 0 3.217-1.464 3.217-3.27 0-1.805-1.44-3.269-3.217-3.269v-1.635c1.777 0 3.217-1.463 3.217-3.269 0-1.805-1.44-3.269-3.217-3.269v-1.635c1.777 0 3.217-1.463 3.217-3.269 0-1.805-1.44-3.27-3.217-3.27v-1.634c6.22 0 11.26-5.123 11.26-11.442 0-6.32-5.04-11.442-11.26-11.442v-1.635c1.777 0 3.217-1.464 3.217-3.27 0-1.805-1.44-3.268-3.217-3.268V21.25c1.777 0 3.217-1.464 3.217-3.27 0-1.805-1.44-3.269-3.217-3.269v-1.634c1.777 0 3.217-1.464 3.217-3.27 0-1.805-1.44-3.269-3.217-3.269C0 2.928 2.881 0 6.435 0h209.13z"/><defs><radialGradient id="paint0_radial_6080_20947" cx="0" cy="0" r="1" gradientTransform="matrix(0 49.3708 -129.911 0 111 48.63)" gradientUnits="userSpaceOnUse"><stop stop-color="#F8E6CA"/><stop offset="1" stop-color="#D9C199"/></radialGradient></defs></svg>