<svg width="1919" height="1080" viewBox="0 0 1919 1080" fill="none" xmlns="http://www.w3.org/2000/svg">
<path d="M591.733 1404L960 444L470.6 1404H591.733ZM336.8 1404L960 444L182.2 1404H336.8ZM1010.53 1404L960 444L909.467 1404H1010.53ZM0 1404H0.133333L960 444L0 1220.8V1404ZM0 812.8L960 444L0 701.067V812.8ZM0 1067.6L960 444L0 932.8V1067.6ZM1920 701.067L960 444L1920 812.8V701.067ZM1920 932.8L960 444L1920 1067.6V932.8ZM0 596.2L960 444L0 494.067V596.2ZM1920 494.067L960 444L1920 596.2V494.067ZM1920 1404V1220.8L960 444L1919.87 1404H1920ZM1449.4 1404L960 444L1328.27 1404H1449.4ZM1217.6 1404L960 444L1111.93 1404H1217.6ZM1737.8 1404L960 444L1583.2 1404H1737.8ZM808.067 1404L960 444L702.4 1404H808.067ZM1920 -516H1919.87L960 444L1920 -332.8V-516ZM1583.2 -516L960 444L1737.8 -516H1583.2ZM1328.27 -516L960 444L1449.4 -516H1328.27ZM1920 291.8L960 444L1920 393.933V291.8ZM1111.93 -516L960 444L1217.6 -516H1111.93ZM0 393.933L960 444L0 291.8V393.933ZM1920 -179.6L960 444L1920 -44.8V-179.6ZM1920 75.2L960 444L1920 186.933V75.2ZM0 -516V-332.8L960 444L0.133333 -516H0ZM0 -44.7333L960 444.067L0 -179.6V-44.8V-44.7333ZM0 187L960 444.067L0 75.2V186.933V187ZM909.467 -516L960 444L1010.53 -516H909.467ZM702.4 -516L960 444L808.067 -516H702.4ZM182.2 -516L960 444L336.8 -516H182.2ZM470.6 -516L960 444L591.733 -516H470.6Z" fill="url(#paint0_radial_5287_15550)" fill-opacity="0.3"/>
<defs>
<radialGradient id="paint0_radial_5287_15550" cx="0" cy="0" r="1" gradientUnits="userSpaceOnUse" gradientTransform="translate(960 444) scale(960)">
<stop stop-color="#F6EAD5"/>
<stop offset="0.34" stop-color="#FBE5C0"/>
<stop offset="0.69" stop-color="#FFE1AF"/>
<stop offset="1" stop-color="#FFD999"/>
</radialGradient>
</defs>
</svg>
