<svg xmlns="http://www.w3.org/2000/svg" width="160" height="52" fill="none" viewBox="0 0 160 52"><mask id="a" fill="#fff"><path d="M151 0a9 9 0 019 9v9c0 .552-.45.992-.997 1.07a7.001 7.001 0 000 13.86c.547.078.997.518.997 1.07v9a9 9 0 01-9 9H9a9 9 0 01-9-9v-9c0-.552.45-.992.997-1.07a7.001 7.001 0 000-13.86C.45 18.992 0 18.552 0 18V9a9 9 0 019-9h142z"/></mask><path fill="#E9E7E6" d="M151 0a9 9 0 019 9v9c0 .552-.45.992-.997 1.07a7.001 7.001 0 000 13.86c.547.078.997.518.997 1.07v9a9 9 0 01-9 9H9a9 9 0 01-9-9v-9c0-.552.45-.992.997-1.07a7.001 7.001 0 000-13.86C.45 18.992 0 18.552 0 18V9a9 9 0 019-9h142z"/><path fill="url(#paint0_linear_7108_1222)" d="M151 0a9 9 0 019 9v9c0 .552-.45.992-.997 1.07a7.001 7.001 0 000 13.86c.547.078.997.518.997 1.07v9a9 9 0 01-9 9H9a9 9 0 01-9-9v-9c0-.552.45-.992.997-1.07a7.001 7.001 0 000-13.86C.45 18.992 0 18.552 0 18V9a9 9 0 019-9h142z"/><path fill="url(#paint1_radial_7108_1222)" fill-opacity=".8" d="M151 0a9 9 0 019 9v9c0 .552-.45.992-.997 1.07a7.001 7.001 0 000 13.86c.547.078.997.518.997 1.07v9a9 9 0 01-9 9H9a9 9 0 01-9-9v-9c0-.552.45-.992.997-1.07a7.001 7.001 0 000-13.86C.45 18.992 0 18.552 0 18V9a9 9 0 019-9h142z"/><path fill="url(#paint2_linear_7108_1222)" d="M160 9h.5-.5zm0 34h.5-.5zM0 43h-.5.5zM0 9h-.5.5zm.997 10.07l-.07.495.07-.495zm0 13.86l-.07-.495.07.494zm158.006 0l.071-.495-.071.494zM151 0v.5a8.5 8.5 0 018.5 8.5h1A9.5 9.5 0 00151-.5V0zm9 9h-.5v9h1V9h-.5zm-.997 10.07l-.071-.494A7.502 7.502 0 00152.5 26h1a6.502 6.502 0 015.574-6.434l-.071-.495zM153 26h-.5a7.502 7.502 0 006.432 7.425l.071-.495.071-.495A6.502 6.502 0 01153.5 26h-.5zm7 8h-.5v9h1v-9h-.5zm0 9h-.5a8.5 8.5 0 01-8.5 8.5v1a9.5 9.5 0 009.5-9.5h-.5zm-9 9v-.5H9v1h142V52zM9 52v-.5A8.5 8.5 0 01.5 43h-1A9.5 9.5 0 009 52.5V52zm-9-9h.5v-9h-1v9H0zm.997-10.07l.07.495A7.502 7.502 0 007.5 26h-1a6.501 6.501 0 01-5.574 6.434l.071.495zM7 26h.5a7.502 7.502 0 00-6.432-7.424l-.071.494-.07.495A6.501 6.501 0 016.5 26H7zm-7-8h.5V9h-1v9H0zm0-9h.5A8.5 8.5 0 019 .5v-1A9.5 9.5 0 00-.5 9H0zm9-9v.5h142v-1H9V0zM.997 19.07l.07-.494C.724 18.526.5 18.26.5 18h-1c0 .843.678 1.459 1.426 1.566l.071-.495zM0 34h.5c0-.261.223-.526.568-.575l-.071-.495-.07-.495C.176 32.54-.5 33.155-.5 34H0zm159.003-1.07l-.071.495c.345.049.568.314.568.575h1c0-.843-.678-1.459-1.426-1.566l-.071.495zM160 18h-.5c0 .261-.223.526-.568.576l.071.494.071.495c.748-.106 1.426-.722 1.426-1.565h-.5z" mask="url(#a)"/><rect width="125.3" height="32.3" x="16.35" y="10.35" stroke="url(#paint3_linear_7108_1222)" stroke-width=".7" rx="3.65"/><g filter="url(#filter0_i_7108_1222)"><path fill="#6F5948" d="M39.065 28.945c0-.312.092-.534.274-.664.182-.135.36-.203.531-.203h.922c.484 0 .864.297 1.14.89.277.595.912.891 1.907.891h1.117c.64 0 1.11-.09 1.406-.273.297-.182.446-.492.446-.93 0-.437-.149-.747-.446-.93-.297-.182-.765-.273-1.406-.273H43.55a.728.728 0 01-.524-.21.714.714 0 01-.218-.524v-.64a.71.71 0 01.21-.509.661.661 0 01.5-.226h1.149c.693 0 1.195-.091 1.508-.274.318-.182.476-.492.476-.93 0-.437-.159-.744-.476-.921-.313-.183-.815-.274-1.508-.274h-.578c-1 0-1.662.32-1.984.961-.235.49-.586.735-1.055.735h-.93a.699.699 0 01-.586-.274.952.952 0 01-.21-.594c0-.593.226-1.127.679-1.601a4.23 4.23 0 011.695-1.078 6.3 6.3 0 012.117-.36h1.079c3.135 0 4.703 1.141 4.703 3.422 0 .953-.357 1.7-1.07 2.242.817.516 1.226 1.269 1.226 2.258 0 1.203-.386 2.073-1.156 2.61-.766.53-1.888.797-3.367.797h-1.665c-1.166 0-2.208-.287-3.125-.86-.916-.578-1.375-1.33-1.375-2.258zm11.977-2.547c0-1.046.143-1.945.43-2.695.291-.75.703-1.336 1.234-1.758 1.01-.807 2.328-1.21 3.953-1.21h.547c1.625 0 2.942.403 3.953 1.21 1.11.886 1.664 2.37 1.664 4.453 0 2.094-.555 3.581-1.664 4.461-1.01.802-2.328 1.203-3.953 1.203h-.547c-1.625 0-2.943-.4-3.953-1.203-1.11-.88-1.664-2.367-1.664-4.46zm5.89-3.453c-1.963 0-2.945 1.154-2.945 3.461 0 2.302.982 3.453 2.945 3.453 1.964 0 2.946-1.15 2.946-3.453 0-2.307-.982-3.46-2.946-3.46zm7.938 2.18c-.516-.463-.774-1.094-.774-1.89 0-.803.258-1.436.773-1.9.521-.463 1.17-.694 1.946-.694.781 0 1.43.231 1.945.695.52.463.781 1.096.781 1.898 0 .797-.26 1.427-.78 1.891-.516.463-1.165.695-1.946.695-.776 0-1.425-.232-1.945-.695zm-.196 6.438c0-.079.05-.178.149-.297l7.789-9.727c.385-.49.838-.737 1.359-.742h1.25c.203 0 .333.08.39.242a.639.639 0 01.024.195c0 .084-.047.185-.14.305l-7.797 9.727c-.386.49-.839.734-1.36.734h-1.25c-.276 0-.414-.146-.414-.438zm1.484-9.165c-.156.204-.234.482-.234.836 0 .35.078.625.234.828.162.204.38.305.657.305.281 0 .5-.101.656-.305.161-.203.242-.479.242-.828 0-.354-.08-.632-.242-.836-.156-.203-.375-.304-.656-.304a.794.794 0 00-.656.304zm5.383 9.047c-.515-.463-.773-1.093-.773-1.89 0-.802.258-1.435.773-1.899.521-.463 1.17-.695 1.946-.695.78 0 1.43.232 1.945.695.52.464.781 1.097.781 1.899 0 .797-.26 1.427-.781 1.89-.516.464-1.164.696-1.945.696-.776 0-1.425-.232-1.946-.696zm1.29-2.726c-.157.203-.235.482-.235.836 0 .349.078.625.234.828.162.203.38.305.657.305.28 0 .5-.102.656-.305.161-.203.242-.48.242-.828 0-.354-.08-.633-.242-.836-.156-.203-.375-.305-.656-.305a.794.794 0 00-.657.305zm21.57 2.125c-1.063.932-2.626 1.398-4.688 1.398-2.058 0-3.62-.466-4.688-1.398-1.068-.938-1.602-2.42-1.602-4.446s.534-3.505 1.602-4.437c1.068-.932 2.63-1.398 4.688-1.398 2.062 0 3.625.466 4.687 1.398 1.068.932 1.602 2.411 1.602 4.437 0 2.026-.534 3.508-1.602 4.446zm-2.134-7.235c-.526-.625-1.377-.937-2.554-.937-1.172 0-2.024.312-2.555.937-.526.625-.79 1.558-.79 2.797 0 1.235.264 2.164.79 2.79.531.62 1.383.929 2.555.929 1.177 0 2.028-.31 2.554-.93.526-.625.79-1.554.79-2.789 0-1.24-.264-2.172-.79-2.797zm5.664 7.641v-9.727c0-.203.073-.375.219-.515.146-.14.32-.211.523-.211h9.008a.69.69 0 01.516.219c.145.146.218.32.218.523v.734a.717.717 0 01-.218.524.703.703 0 01-.516.21h-6.805v2.75h5.539c.204 0 .375.074.516.22a.705.705 0 01.219.515v.742a.714.714 0 01-.219.524.702.702 0 01-.516.21h-5.539v3.282a.735.735 0 01-.734.75h-1.469a.733.733 0 01-.742-.75zm12.086 0v-9.727c0-.203.073-.375.218-.515a.73.73 0 01.524-.211h9.008c.203 0 .375.073.515.219.146.146.219.32.219.523v.734a.714.714 0 01-.219.524.7.7 0 01-.515.21h-6.805v2.75h5.539a.69.69 0 01.516.22.708.708 0 01.218.515v.742a.717.717 0 01-.218.524.703.703 0 01-.516.21h-5.539v3.282a.732.732 0 01-.219.54.7.7 0 01-.515.21h-1.469a.73.73 0 01-.742-.75z"/></g><defs><linearGradient id="paint0_linear_7108_1222" x1="-8" x2="166" y1="23" y2="12.5" gradientUnits="userSpaceOnUse"><stop stop-color="#6D5B46"/><stop offset=".524" stop-color="#fff"/><stop offset="1" stop-color="#6D5B46"/></linearGradient><linearGradient id="paint2_linear_7108_1222" x1="80" x2="80" y1="-4" y2="57" gradientUnits="userSpaceOnUse"><stop stop-color="#fff"/><stop offset="1" stop-color="#C7C7C7"/></linearGradient><linearGradient id="paint3_linear_7108_1222" x1="16" x2="142" y1="26.5" y2="26.5" gradientUnits="userSpaceOnUse"><stop stop-color="#674F36"/><stop offset=".37" stop-color="#fff"/><stop offset="1" stop-color="#674F36"/></linearGradient><radialGradient id="paint1_radial_7108_1222" cx="0" cy="0" r="1" gradientTransform="rotate(33.334 2.008 140.433) scale(89.1698 233.888)" gradientUnits="userSpaceOnUse"><stop stop-color="#CD9E84"/><stop offset="1" stop-color="#6C5B46"/></radialGradient><filter id="filter0_i_7108_1222" width="81.438" height="12.68" x="39.065" y="20.563" color-interpolation-filters="sRGB" filterUnits="userSpaceOnUse"><feFlood flood-opacity="0" result="BackgroundImageFix"/><feBlend in="SourceGraphic" in2="BackgroundImageFix" result="shape"/><feColorMatrix in="SourceAlpha" result="hardAlpha" values="0 0 0 0 0 0 0 0 0 0 0 0 0 0 0 0 0 0 127 0"/><feOffset dy="1"/><feGaussianBlur stdDeviation=".5"/><feComposite in2="hardAlpha" k2="-1" k3="1" operator="arithmetic"/><feColorMatrix values="0 0 0 0 0 0 0 0 0 0 0 0 0 0 0 0 0 0 0.25 0"/><feBlend in2="shape" result="effect1_innerShadow_7108_1222"/></filter></defs></svg>