<svg width="222" height="85" viewBox="0 0 222 85" fill="none" xmlns="http://www.w3.org/2000/svg">
<path d="M215.565 0C219.119 5.26555e-08 222 2.92737 222 6.53846C220.223 6.53846 218.783 8.00215 218.783 9.80769C218.783 11.6132 220.223 13.0769 222 13.0769V14.7115C220.223 14.7115 218.783 16.1752 218.783 17.9808C218.783 19.7863 220.223 21.25 222 21.25V22.8846C220.223 22.8846 218.783 24.3483 218.783 26.1538C218.783 27.9594 220.223 29.4231 222 29.4231V31.0577C215.781 31.0577 210.739 36.1806 210.739 42.5C210.739 48.8194 215.781 53.9423 222 53.9423V55.5769C220.223 55.5769 218.783 57.0406 218.783 58.8462C218.783 60.6517 220.223 62.1154 222 62.1154V63.75C220.223 63.75 218.783 65.2137 218.783 67.0192C218.783 68.8248 220.223 70.2885 222 70.2885V71.9231C220.223 71.9231 218.783 73.3868 218.783 75.1923C218.783 76.9979 220.223 78.4615 222 78.4615C222 82.0726 219.119 85 215.565 85H6.43478C2.88095 85 1.29553e-07 82.0726 0 78.4615C1.77692 78.4615 3.21739 76.9979 3.21739 75.1923C3.21739 73.3868 1.77692 71.9231 0 71.9231V70.2885C1.77692 70.2885 3.21739 68.8248 3.21739 67.0192C3.21739 65.2137 1.77692 63.75 0 63.75V62.1154C1.77692 62.1154 3.21739 60.6517 3.21739 58.8462C3.21739 57.0406 1.77692 55.5769 0 55.5769V53.9423C6.21921 53.9423 11.2609 48.8194 11.2609 42.5C11.2609 36.1806 6.21921 31.0577 0 31.0577V29.4231C1.77692 29.4231 3.21739 27.9594 3.21739 26.1538C3.21739 24.3483 1.77692 22.8846 0 22.8846V21.25C1.77692 21.25 3.21739 19.7863 3.21739 17.9808C3.21739 16.1752 1.77692 14.7115 0 14.7115V13.0769C1.77692 13.0769 3.21739 11.6132 3.21739 9.80769C3.21739 8.00215 1.77692 6.53846 0 6.53846C0 2.92737 2.88095 5.26555e-08 6.43478 0H215.565Z" fill="url(#paint0_radial_6080_20947)"/>
<defs>
<radialGradient id="paint0_radial_6080_20947" cx="0" cy="0" r="1" gradientUnits="userSpaceOnUse" gradientTransform="translate(111 48.6298) rotate(90) scale(49.3708 129.911)">
<stop stop-color="#F8E6CA"/>
<stop offset="1" stop-color="#D9C199"/>
</radialGradient>
</defs>
</svg>
