<svg xmlns="http://www.w3.org/2000/svg" width="28" height="28" fill="none" viewBox="0 0 28 28"><rect width="28" height="28" fill="#fff" class="icon__color-element" rx="14"/><path fill="#000" d="M14.92 20.413l-3.897-.072c-1.262-.026-2.527.025-3.765-.238-1.882-.393-2.016-2.32-2.155-3.936a28.208 28.208 0 01.245-6.839c.205-1.264 1.01-2.019 2.257-2.1 4.209-.299 8.445-.263 12.644-.124.443.012.89.082 1.327.161 2.158.387 2.21 2.57 2.35 4.409.14 1.857.081 3.723-.185 5.567-.214 1.528-.624 2.808-2.351 2.932-2.165.162-4.28.292-6.45.25 0-.01-.013-.01-.02-.01zm-2.29-3.866c1.63-.957 3.23-1.898 4.853-2.849-1.635-.957-3.232-1.898-4.854-2.849v5.698z"/></svg>