<svg xmlns="http://www.w3.org/2000/svg" width="20" height="20" fill="none" viewBox="0 0 20 20"><path fill="#FFB610" fill-rule="evenodd" d="M4.427 3.096a1.33 1.33 0 00-1.33 1.33v7.185c0 .588.476 1.064 1.064 1.064a.798.798 0 010 1.597 2.66 2.66 0 01-2.661-2.66V4.426A2.927 2.927 0 014.427 1.5h7.184a2.66 2.66 0 012.661 2.66.798.798 0 11-1.597 0c0-.587-.476-1.064-1.064-1.064H4.427z" class="icon__color-element" clip-rule="evenodd"/><path fill="#FFB610" d="M16.079 5.787h-7.87a2.422 2.422 0 00-2.422 2.421v7.87A2.422 2.422 0 008.21 18.5h7.87A2.422 2.422 0 0018.5 16.08v-7.87a2.422 2.422 0 00-2.421-2.422z" class="icon__color-element"/></svg>