<svg xmlns="http://www.w3.org/2000/svg" width="28" height="28" fill="none" viewBox="0 0 28 28"><rect width="28" height="28" fill="#fff" class="icon__color-element" rx="14"/><path fill="#000" fill-rule="evenodd" d="M5 14c0-3.595 0-5.393.857-6.687a5.16 5.16 0 011.456-1.456C8.607 5 10.405 5 14 5s5.393 0 6.687.857a5.159 5.159 0 011.456 1.456C23 8.607 23 10.405 23 14s0 5.393-.857 6.687a5.158 5.158 0 01-1.456 1.456C19.393 23 17.595 23 14 23s-5.393 0-6.687-.857a5.159 5.159 0 01-1.456-1.456C5 19.393 5 17.595 5 14zm13.66 0a4.66 4.66 0 11-9.32 0 4.66 4.66 0 019.32 0zM14 17.083a3.083 3.083 0 100-6.166 3.083 3.083 0 000 6.166zm4.843-6.881a1.095 1.095 0 100-2.19 1.095 1.095 0 000 2.19z" clip-rule="evenodd"/></svg>