<svg width="28" height="28" viewBox="0 0 28 28" fill="none" xmlns="http://www.w3.org/2000/svg">
<rect class="icon__color-element" width="28" height="28" rx="14" fill="white"/>
<path d="M14.9209 20.4134L11.0229 20.3406C9.76076 20.3152 8.49552 20.3659 7.25816 20.1029C5.37585 19.7099 5.2425 17.7831 5.10296 16.1669C4.91069 13.8948 4.98513 11.5814 5.34796 9.32815C5.55279 8.06387 6.35888 7.30946 7.60547 7.22737C11.8136 6.92943 16.0498 6.96474 20.2486 7.10374C20.6921 7.11648 21.1386 7.18612 21.5758 7.2654C23.7343 7.65204 23.7869 9.8355 23.9268 11.6736C24.0664 13.5306 24.0074 15.3972 23.7407 17.2415C23.5268 18.7686 23.1174 20.0493 21.3898 20.1729C19.2251 20.3346 17.1102 20.4647 14.9395 20.4233C14.9396 20.4134 14.9271 20.4134 14.9209 20.4134ZM12.6292 16.5472C14.2605 15.5901 15.8606 14.649 17.4825 13.6983C15.8482 12.7412 14.2511 11.8 12.6292 10.8493V16.5472Z" fill="black"/>
</svg>
