<svg width="28" height="28" viewBox="0 0 28 28" fill="none" xmlns="http://www.w3.org/2000/svg">
<rect class="icon__color-element" width="28" height="28" rx="14" fill="white"/>
<path fill-rule="evenodd" clip-rule="evenodd" d="M5 14C5 10.4049 5 8.60729 5.85669 7.31255C6.23925 6.73439 6.73439 6.23925 7.31255 5.85669C8.60729 5 10.4049 5 14 5C17.5951 5 19.3927 5 20.6874 5.85669C21.2656 6.23925 21.7608 6.73439 22.1433 7.31255C23 8.60729 23 10.4049 23 14C23 17.5951 23 19.3927 22.1433 20.6874C21.7608 21.2656 21.2656 21.7608 20.6874 22.1433C19.3927 23 17.5951 23 14 23C10.4049 23 8.60729 23 7.31255 22.1433C6.73439 21.7608 6.23925 21.2656 5.85669 20.6874C5 19.3927 5 17.5951 5 14ZM18.6593 14.0002C18.6593 16.5735 16.5732 18.6596 13.9998 18.6596C11.4265 18.6596 9.34043 16.5735 9.34043 14.0002C9.34043 11.4269 11.4265 9.34082 13.9998 9.34082C16.5732 9.34082 18.6593 11.4269 18.6593 14.0002ZM13.9998 17.0832C15.7025 17.0832 17.0828 15.7029 17.0828 14.0002C17.0828 12.2975 15.7025 10.9172 13.9998 10.9172C12.2971 10.9172 10.9168 12.2975 10.9168 14.0002C10.9168 15.7029 12.2971 17.0832 13.9998 17.0832ZM18.8433 10.2015C19.4479 10.2015 19.9381 9.71138 19.9381 9.10673C19.9381 8.50207 19.4479 8.0119 18.8433 8.0119C18.2386 8.0119 17.7485 8.50207 17.7485 9.10673C17.7485 9.71138 18.2386 10.2015 18.8433 10.2015Z" fill="black"/>
</svg>
