<svg width="20" height="20" viewBox="0 0 20 20" fill="none" xmlns="http://www.w3.org/2000/svg">
<path class="icon__color-element" fill-rule="evenodd" clip-rule="evenodd" d="M4.42692 3.0965C3.69215 3.0965 3.0965 3.69215 3.0965 4.42692V11.6112C3.0965 12.199 3.57302 12.6755 4.16084 12.6755C4.6017 12.6755 4.95909 13.0329 4.95909 13.4738C4.95909 13.9146 4.6017 14.272 4.16084 14.272C2.6913 14.272 1.5 13.0807 1.5 11.6112V4.42692C1.5 2.81043 2.81043 1.5 4.42692 1.5H11.6112C13.0807 1.5 14.272 2.6913 14.272 4.16084C14.272 4.6017 13.9146 4.95909 13.4738 4.95909C13.0329 4.95909 12.6755 4.6017 12.6755 4.16084C12.6755 3.57302 12.199 3.0965 11.6112 3.0965H4.42692Z" fill="#FFB610"/>
<path class="icon__color-element" d="M16.0788 5.78687H8.20869C6.87129 5.78687 5.78711 6.87104 5.78711 8.20845V16.0786C5.78711 17.416 6.87129 18.5002 8.20869 18.5002H16.0788C17.4162 18.5002 18.5004 17.416 18.5004 16.0786V8.20845C18.5004 6.87104 17.4162 5.78687 16.0788 5.78687Z" fill="#FFB610"/>
</svg>
