<svg xmlns="http://www.w3.org/2000/svg" width="161" height="52" fill="none" viewBox="0 0 161 52"><mask id="a" fill="#fff"><path d="M151.666 0a9 9 0 019 9v9c0 .552-.45.992-.997 1.07a7.001 7.001 0 000 13.86c.547.078.997.518.997 1.07v9a9 9 0 01-9 9h-142a9 9 0 01-9-9v-9c0-.552.45-.992.997-1.07a7.001 7.001 0 000-13.86c-.547-.078-.997-.518-.997-1.07V9a9 9 0 019-9h142z"/></mask><path fill="#FFEFB4" d="M151.666 0a9 9 0 019 9v9c0 .552-.45.992-.997 1.07a7.001 7.001 0 000 13.86c.547.078.997.518.997 1.07v9a9 9 0 01-9 9h-142a9 9 0 01-9-9v-9c0-.552.45-.992.997-1.07a7.001 7.001 0 000-13.86c-.547-.078-.997-.518-.997-1.07V9a9 9 0 019-9h142z"/><path fill="url(#paint0_linear_7108_1220)" d="M151.666 0a9 9 0 019 9v9c0 .552-.45.992-.997 1.07a7.001 7.001 0 000 13.86c.547.078.997.518.997 1.07v9a9 9 0 01-9 9h-142a9 9 0 01-9-9v-9c0-.552.45-.992.997-1.07a7.001 7.001 0 000-13.86c-.547-.078-.997-.518-.997-1.07V9a9 9 0 019-9h142z"/><path fill="url(#paint1_radial_7108_1220)" fill-opacity=".8" d="M151.666 0a9 9 0 019 9v9c0 .552-.45.992-.997 1.07a7.001 7.001 0 000 13.86c.547.078.997.518.997 1.07v9a9 9 0 01-9 9h-142a9 9 0 01-9-9v-9c0-.552.45-.992.997-1.07a7.001 7.001 0 000-13.86c-.547-.078-.997-.518-.997-1.07V9a9 9 0 019-9h142z"/><path fill="url(#paint2_linear_7108_1220)" d="M160.666 9h.5-.5zm0 34h.5-.5zm-160 0h-.5.5zm0-34h-.5.5zm.997 10.07l-.07.495.07-.495zm0 13.86l-.07-.495.07.494zm158.006 0l.071-.495-.071.494zM151.666 0v.5a8.5 8.5 0 018.5 8.5h1a9.5 9.5 0 00-9.5-9.5V0zm9 9h-.5v9h1V9h-.5zm-.997 10.07l-.071-.494A7.502 7.502 0 00153.166 26h1a6.502 6.502 0 015.574-6.434l-.071-.495zM153.666 26h-.5a7.502 7.502 0 006.432 7.425l.071-.495.071-.495A6.502 6.502 0 01154.166 26h-.5zm7 8h-.5v9h1v-9h-.5zm0 9h-.5a8.5 8.5 0 01-8.5 8.5v1a9.5 9.5 0 009.5-9.5h-.5zm-9 9v-.5h-142v1h142V52zm-142 0v-.5a8.5 8.5 0 01-8.5-8.5h-1a9.5 9.5 0 009.5 9.5V52zm-9-9h.5v-9h-1v9h.5zm.997-10.07l.07.495A7.502 7.502 0 008.167 26h-1a6.501 6.501 0 01-5.574 6.434l.071.495zM7.666 26h.5a7.502 7.502 0 00-6.432-7.424l-.071.494-.07.495A6.501 6.501 0 017.165 26h.5zm-7-8h.5V9h-1v9h.5zm0-9h.5a8.5 8.5 0 018.5-8.5v-1A9.5 9.5 0 00.166 9h.5zm9-9v.5h142v-1h-142V0zM1.663 19.07l.07-.494c-.344-.05-.567-.315-.567-.576h-1c0 .843.678 1.459 1.426 1.566l.071-.495zM.666 34h.5c0-.261.223-.526.568-.575l-.071-.495-.07-.495C.842 32.54.165 33.155.165 34h.5zm159.003-1.07l-.071.495c.345.049.568.314.568.575h1c0-.843-.678-1.459-1.426-1.566l-.071.495zm.997-14.93h-.5c0 .261-.223.526-.568.576l.071.494.071.495c.748-.106 1.426-.722 1.426-1.565h-.5z" mask="url(#a)"/><rect width="125.3" height="32.3" x="17.35" y="10.35" stroke="url(#paint3_linear_7108_1220)" stroke-width=".7" rx="3.65"/><g filter="url(#filter0_i_7108_1220)"><path fill="#B67703" d="M25.894 31.25v-9.727c0-.203.073-.375.219-.515.145-.14.32-.211.523-.211h9.008a.69.69 0 01.516.219c.145.146.218.32.218.523v.734a.714.714 0 01-.218.524.702.702 0 01-.516.21h-6.805v2.75h5.54c.202 0 .374.074.515.22a.705.705 0 01.219.515v.742a.714.714 0 01-.22.524.701.701 0 01-.515.21H28.84v3.282a.733.733 0 01-.219.54.701.701 0 01-.515.21h-1.469a.733.733 0 01-.742-.75zm23.718.414c0 .224-.133.336-.398.336h-1.875c-.198 0-.417-.07-.656-.21a1.624 1.624 0 01-.54-.524l-1.328-2.078c-.546-.855-1.208-1.282-1.984-1.282h-1.906v3.36a.715.715 0 01-.219.523.701.701 0 01-.516.211h-1.468a.728.728 0 01-.524-.21.714.714 0 01-.218-.524v-9.727c0-.203.07-.378.21-.523a.689.689 0 01.516-.22h6.445c1.193 0 2.17.321 2.93.962.766.64 1.148 1.505 1.148 2.594 0 1.515-.981 2.466-2.945 2.851.313.115.602.313.867.594.266.276.57.68.914 1.21l1.422 2.259a.818.818 0 01.125.398zm-8.687-5.969h3.328c.536 0 1.008-.107 1.414-.32.411-.213.617-.555.617-1.023 0-.47-.206-.81-.617-1.024-.406-.213-.878-.32-1.414-.32h-3.328v2.687zm10.312 5.555v-9.727c0-.203.073-.375.219-.515.145-.14.32-.211.523-.211h9.008c.203 0 .375.073.516.219.145.146.218.32.218.523v.734a.714.714 0 01-.218.524.701.701 0 01-.516.21h-6.805v2.274h5.86a.69.69 0 01.515.219c.146.14.219.313.219.516v.734a.714.714 0 01-.219.523.701.701 0 01-.515.211h-5.86v2.305h6.79c.197 0 .367.07.507.211.14.14.211.313.211.516v.75a.714.714 0 01-.219.523.728.728 0 01-.523.211h-8.969a.733.733 0 01-.742-.75zm12.242 0v-9.727c0-.203.073-.375.219-.515.145-.14.32-.211.523-.211h9.008a.69.69 0 01.516.219c.145.146.218.32.218.523v.734a.714.714 0 01-.218.524.702.702 0 01-.516.21h-6.805v2.274h5.86c.203 0 .374.073.515.219.146.14.219.313.219.516v.734a.714.714 0 01-.219.523.701.701 0 01-.516.211h-5.859v2.305h6.79c.197 0 .366.07.507.211.14.14.211.313.211.516v.75a.715.715 0 01-.219.523.728.728 0 01-.523.211H64.22a.733.733 0 01-.742-.75zm22.898.813c-1.73 0-3.058-.467-3.985-1.399-.922-.932-1.382-2.357-1.382-4.273 0-1.922.481-3.344 1.445-4.266.969-.927 2.419-1.39 4.351-1.39h1.743c1.15 0 2.187.275 3.109.828.927.546 1.39 1.231 1.39 2.054 0 .307-.09.529-.273.664-.182.13-.36.196-.531.196h-.93c-.448 0-.804-.256-1.07-.766s-.922-.766-1.969-.766h-1.39c-1.141 0-1.915.245-2.32.735-.407.49-.61 1.39-.61 2.703 0 1.312.182 2.221.547 2.726.364.5 1.015.75 1.953.75h1.601c.839 0 1.438-.159 1.797-.476.36-.323.544-.784.555-1.383h-1.766a.728.728 0 01-.523-.21.728.728 0 01-.211-.524v-.61c0-.203.07-.375.21-.515a.714.714 0 01.524-.22h3.922a.69.69 0 01.516.22c.146.14.219.312.219.515v.867c0 1.459-.438 2.581-1.313 3.368-.875.78-2.159 1.172-3.852 1.172h-1.757zm7.921-.782l1.961-7.437c.531-2.026 2.26-3.042 5.188-3.047h4.211a.6.6 0 01.476.219.74.74 0 01.195.507v9.758a.688.688 0 01-.218.516.744.744 0 01-.524.203h-1.468a.737.737 0 01-.532-.203.737.737 0 01-.203-.531v-1.97h-5.555l-.523 1.97a.937.937 0 01-.352.53.954.954 0 01-.578.204h-1.539c-.203 0-.349-.057-.437-.172-.089-.12-.133-.224-.133-.312.005-.089.016-.167.031-.235zm4.11-4.195h4.976v-4.078h-2.226c-.5 0-.938.143-1.313.43-.37.28-.62.661-.75 1.14l-.687 2.508zm10.476 4.164v-9.695c0-.214.07-.393.211-.54a.687.687 0 01.515-.218h3.18c.203 0 .396.073.578.219.182.146.305.32.367.523l2.305 6.672 2.305-6.672c.062-.203.185-.378.367-.523a.911.911 0 01.578-.22h3.18c.203 0 .372.074.508.22a.75.75 0 01.211.539v9.695a.732.732 0 01-.219.54.703.703 0 01-.516.21h-1.406a.73.73 0 01-.524-.21.749.749 0 01-.21-.54v-7.633l-2.758 7.68a1.14 1.14 0 01-.383.5.953.953 0 01-.578.203h-1.117a.956.956 0 01-.579-.203 1.217 1.217 0 01-.382-.5l-2.75-7.68v7.633a.732.732 0 01-.219.54.703.703 0 01-.516.21h-1.406a.732.732 0 01-.742-.75zm16.867 0v-9.727c0-.203.073-.375.218-.515a.73.73 0 01.524-.211h9.008c.203 0 .375.073.515.219.146.146.219.32.219.523v.734a.714.714 0 01-.219.524.7.7 0 01-.515.21h-6.805v2.274h5.859a.69.69 0 01.516.219c.146.14.219.313.219.516v.734a.714.714 0 01-.219.523.701.701 0 01-.516.211h-5.859v2.305h6.789c.198 0 .367.07.508.211a.7.7 0 01.211.516v.75a.714.714 0 01-.219.523.727.727 0 01-.523.211h-8.969a.73.73 0 01-.742-.75z"/></g><defs><linearGradient id="paint0_linear_7108_1220" x1="-7.334" x2="160.666" y1="23" y2="24" gradientUnits="userSpaceOnUse"><stop stop-color="#F7B00C"/><stop offset=".524" stop-color="#FFF6B1"/><stop offset="1" stop-color="#F7B10C"/></linearGradient><linearGradient id="paint2_linear_7108_1220" x1="80.666" x2="80.666" y1="-4" y2="57" gradientUnits="userSpaceOnUse"><stop stop-color="#FCFED0"/><stop offset="1" stop-color="#FFCC58"/></linearGradient><linearGradient id="paint3_linear_7108_1220" x1="17" x2="143" y1="26.5" y2="26.5" gradientUnits="userSpaceOnUse"><stop stop-color="#B48015"/><stop offset=".37" stop-color="#FEF4CB"/><stop offset="1" stop-color="#B48015"/></linearGradient><radialGradient id="paint1_radial_7108_1220" cx="0" cy="0" r="1" gradientTransform="matrix(19.99998 56.00003 -146.8854 52.459 78.166 22)" gradientUnits="userSpaceOnUse"><stop stop-color="#FFFCBF"/><stop offset="1" stop-color="#FC9117" stop-opacity=".44"/></radialGradient><filter id="filter0_i_7108_1220" width="110.34" height="12.328" x="25.895" y="20.734" color-interpolation-filters="sRGB" filterUnits="userSpaceOnUse"><feFlood flood-opacity="0" result="BackgroundImageFix"/><feBlend in="SourceGraphic" in2="BackgroundImageFix" result="shape"/><feColorMatrix in="SourceAlpha" result="hardAlpha" values="0 0 0 0 0 0 0 0 0 0 0 0 0 0 0 0 0 0 127 0"/><feOffset dy="1"/><feGaussianBlur stdDeviation=".5"/><feComposite in2="hardAlpha" k2="-1" k3="1" operator="arithmetic"/><feColorMatrix values="0 0 0 0 0 0 0 0 0 0 0 0 0 0 0 0 0 0 0.25 0"/><feBlend in2="shape" result="effect1_innerShadow_7108_1220"/></filter></defs></svg>