<svg xmlns="http://www.w3.org/2000/svg" width="161" height="52" fill="none" viewBox="0 0 161 52"><mask id="a" fill="#fff"><path d="M151.666 0a9 9 0 019 9v9c0 .552-.45.992-.997 1.07a7.001 7.001 0 000 13.86c.547.078.997.518.997 1.07v9a9 9 0 01-9 9h-142a9 9 0 01-9-9v-9c0-.552.45-.992.997-1.07a7.001 7.001 0 000-13.86c-.547-.078-.997-.518-.997-1.07V9a9 9 0 019-9h142z"/></mask><path fill="#FFEFB4" d="M151.666 0a9 9 0 019 9v9c0 .552-.45.992-.997 1.07a7.001 7.001 0 000 13.86c.547.078.997.518.997 1.07v9a9 9 0 01-9 9h-142a9 9 0 01-9-9v-9c0-.552.45-.992.997-1.07a7.001 7.001 0 000-13.86c-.547-.078-.997-.518-.997-1.07V9a9 9 0 019-9h142z"/><path fill="url(#paint0_linear_8005_8944)" d="M151.666 0a9 9 0 019 9v9c0 .552-.45.992-.997 1.07a7.001 7.001 0 000 13.86c.547.078.997.518.997 1.07v9a9 9 0 01-9 9h-142a9 9 0 01-9-9v-9c0-.552.45-.992.997-1.07a7.001 7.001 0 000-13.86c-.547-.078-.997-.518-.997-1.07V9a9 9 0 019-9h142z"/><path fill="url(#paint1_radial_8005_8944)" fill-opacity=".8" d="M151.666 0a9 9 0 019 9v9c0 .552-.45.992-.997 1.07a7.001 7.001 0 000 13.86c.547.078.997.518.997 1.07v9a9 9 0 01-9 9h-142a9 9 0 01-9-9v-9c0-.552.45-.992.997-1.07a7.001 7.001 0 000-13.86c-.547-.078-.997-.518-.997-1.07V9a9 9 0 019-9h142z"/><path fill="url(#paint2_linear_8005_8944)" d="M160.666 9h.5-.5zm0 34h.5-.5zm-160 0h-.5.5zm0-34h-.5.5zm.997 10.07l-.07.495.07-.495zm0 13.86l-.07-.495.07.494zm158.006 0l.071-.495-.071.494zM151.666 0v.5a8.5 8.5 0 018.5 8.5h1a9.5 9.5 0 00-9.5-9.5V0zm9 9h-.5v9h1V9h-.5zm-.997 10.07l-.071-.494A7.502 7.502 0 00153.166 26h1a6.502 6.502 0 015.574-6.434l-.071-.495zM153.666 26h-.5a7.502 7.502 0 006.432 7.425l.071-.495.071-.495A6.502 6.502 0 01154.166 26h-.5zm7 8h-.5v9h1v-9h-.5zm0 9h-.5a8.5 8.5 0 01-8.5 8.5v1a9.5 9.5 0 009.5-9.5h-.5zm-9 9v-.5h-142v1h142V52zm-142 0v-.5a8.5 8.5 0 01-8.5-8.5h-1a9.5 9.5 0 009.5 9.5V52zm-9-9h.5v-9h-1v9h.5zm.997-10.07l.07.495A7.502 7.502 0 008.167 26h-1a6.501 6.501 0 01-5.574 6.434l.071.495zM7.666 26h.5a7.502 7.502 0 00-6.432-7.424l-.071.494-.07.495A6.501 6.501 0 017.165 26h.5zm-7-8h.5V9h-1v9h.5zm0-9h.5a8.5 8.5 0 018.5-8.5v-1A9.5 9.5 0 00.166 9h.5zm9-9v.5h142v-1h-142V0zM1.663 19.07l.07-.494c-.344-.05-.567-.315-.567-.576h-1c0 .843.678 1.459 1.426 1.566l.071-.495zM.666 34h.5c0-.261.223-.526.568-.575l-.071-.495-.07-.495C.842 32.54.165 33.155.165 34h.5zm159.003-1.07l-.071.495c.345.049.568.314.568.575h1c0-.843-.678-1.459-1.426-1.566l-.071.495zm.997-14.93h-.5c0 .261-.223.526-.568.576l.071.494.071.495c.748-.106 1.426-.722 1.426-1.565h-.5z" mask="url(#a)"/><rect width="125.3" height="32.3" x="17.35" y="10.35" stroke="url(#paint3_linear_8005_8944)" stroke-width=".7" rx="3.65"/><defs><linearGradient id="paint0_linear_8005_8944" x1="-7.334" x2="160.666" y1="23" y2="24" gradientUnits="userSpaceOnUse"><stop stop-color="#F7B00C"/><stop offset=".524" stop-color="#FFF6B1"/><stop offset="1" stop-color="#F7B10C"/></linearGradient><linearGradient id="paint2_linear_8005_8944" x1="80.666" x2="80.666" y1="-4" y2="57" gradientUnits="userSpaceOnUse"><stop stop-color="#FCFED0"/><stop offset="1" stop-color="#FFCC58"/></linearGradient><linearGradient id="paint3_linear_8005_8944" x1="17" x2="143" y1="26.5" y2="26.5" gradientUnits="userSpaceOnUse"><stop stop-color="#B48015"/><stop offset=".37" stop-color="#FEF4CB"/><stop offset="1" stop-color="#B48015"/></linearGradient><radialGradient id="paint1_radial_8005_8944" cx="0" cy="0" r="1" gradientTransform="matrix(19.99998 56.00003 -146.8854 52.459 78.166 22)" gradientUnits="userSpaceOnUse"><stop stop-color="#FFFCBF"/><stop offset="1" stop-color="#FC9117" stop-opacity=".44"/></radialGradient></defs></svg>