<svg xmlns="http://www.w3.org/2000/svg" width="161" height="52" fill="none" viewBox="0 0 161 52"><mask id="a" fill="#fff"><path d="M151.666 0a9 9 0 019 9v9c0 .552-.45.992-.997 1.07a7.001 7.001 0 000 13.86c.547.078.997.518.997 1.07v9a9 9 0 01-9 9h-142a9 9 0 01-9-9v-9c0-.552.45-.992.997-1.07a7.001 7.001 0 000-13.86c-.547-.078-.997-.518-.997-1.07V9a9 9 0 019-9h142z"/></mask><path fill="#E9E7E6" d="M151.666 0a9 9 0 019 9v9c0 .552-.45.992-.997 1.07a7.001 7.001 0 000 13.86c.547.078.997.518.997 1.07v9a9 9 0 01-9 9h-142a9 9 0 01-9-9v-9c0-.552.45-.992.997-1.07a7.001 7.001 0 000-13.86c-.547-.078-.997-.518-.997-1.07V9a9 9 0 019-9h142z"/><path fill="url(#paint0_linear_7108_1221)" d="M151.666 0a9 9 0 019 9v9c0 .552-.45.992-.997 1.07a7.001 7.001 0 000 13.86c.547.078.997.518.997 1.07v9a9 9 0 01-9 9h-142a9 9 0 01-9-9v-9c0-.552.45-.992.997-1.07a7.001 7.001 0 000-13.86c-.547-.078-.997-.518-.997-1.07V9a9 9 0 019-9h142z"/><path fill="url(#paint1_radial_7108_1221)" fill-opacity=".8" d="M151.666 0a9 9 0 019 9v9c0 .552-.45.992-.997 1.07a7.001 7.001 0 000 13.86c.547.078.997.518.997 1.07v9a9 9 0 01-9 9h-142a9 9 0 01-9-9v-9c0-.552.45-.992.997-1.07a7.001 7.001 0 000-13.86c-.547-.078-.997-.518-.997-1.07V9a9 9 0 019-9h142z"/><path fill="url(#paint2_linear_7108_1221)" d="M160.666 9h.5-.5zm0 34h.5-.5zm-160 0h-.5.5zm0-34h-.5.5zm.997 10.07l-.07.495.07-.495zm0 13.86l-.07-.495.07.494zm158.006 0l.071-.495-.071.494zM151.666 0v.5a8.5 8.5 0 018.5 8.5h1a9.5 9.5 0 00-9.5-9.5V0zm9 9h-.5v9h1V9h-.5zm-.997 10.07l-.071-.494A7.502 7.502 0 00153.166 26h1a6.502 6.502 0 015.574-6.434l-.071-.495zM153.666 26h-.5a7.502 7.502 0 006.432 7.425l.071-.495.071-.495A6.502 6.502 0 01154.166 26h-.5zm7 8h-.5v9h1v-9h-.5zm0 9h-.5a8.5 8.5 0 01-8.5 8.5v1a9.5 9.5 0 009.5-9.5h-.5zm-9 9v-.5h-142v1h142V52zm-142 0v-.5a8.5 8.5 0 01-8.5-8.5h-1a9.5 9.5 0 009.5 9.5V52zm-9-9h.5v-9h-1v9h.5zm.997-10.07l.07.495A7.502 7.502 0 008.167 26h-1a6.501 6.501 0 01-5.574 6.434l.071.495zM7.666 26h.5a7.502 7.502 0 00-6.432-7.424l-.071.494-.07.495A6.501 6.501 0 017.165 26h.5zm-7-8h.5V9h-1v9h.5zm0-9h.5a8.5 8.5 0 018.5-8.5v-1A9.5 9.5 0 00.166 9h.5zm9-9v.5h142v-1h-142V0zM1.663 19.07l.07-.494c-.344-.05-.567-.315-.567-.576h-1c0 .843.678 1.459 1.426 1.566l.071-.495zM.666 34h.5c0-.261.223-.526.568-.575l-.071-.495-.07-.495C.842 32.54.165 33.155.165 34h.5zm159.003-1.07l-.071.495c.345.049.568.314.568.575h1c0-.843-.678-1.459-1.426-1.566l-.071.495zm.997-14.93h-.5c0 .261-.223.526-.568.576l.071.494.071.495c.748-.106 1.426-.722 1.426-1.565h-.5z" mask="url(#a)"/><rect width="125.3" height="32.3" x="17.35" y="10.35" stroke="url(#paint3_linear_7108_1221)" stroke-width=".7" rx="3.65"/><g filter="url(#filter0_i_7108_1221)"><path fill="#6D6A62" d="M40.37 29.297c0-.313.091-.534.274-.664.182-.136.356-.203.523-.203h.93c.437 0 .786.24 1.047.718.26.474.817.711 1.671.711h1.235c.64 0 1.11-.101 1.406-.304.302-.203.453-.55.453-1.04 0-.494-.15-.84-.453-1.038-.297-.204-.766-.305-1.406-.305h-4.547a.727.727 0 01-.523-.211.701.701 0 01-.211-.516V21.54a.72.72 0 01.734-.742h8.047a.72.72 0 01.742.742v.734a.72.72 0 01-.211.532.735.735 0 01-.531.203h-5.836v1.953h2.61c1.478 0 2.6.279 3.366.836.771.552 1.157 1.458 1.157 2.719 0 1.255-.386 2.161-1.157 2.718-.765.552-1.888.828-3.367.828h-1.781c-1.172 0-2.162-.262-2.969-.789-.802-.53-1.203-1.19-1.203-1.976zm11.61-2.899c0-1.046.142-1.945.429-2.695.291-.75.703-1.336 1.234-1.758 1.01-.807 2.328-1.21 3.953-1.21h.547c1.625 0 2.943.403 3.953 1.21 1.11.886 1.664 2.37 1.664 4.453 0 2.094-.554 3.581-1.664 4.461-1.01.802-2.328 1.203-3.953 1.203h-.547c-1.625 0-2.942-.4-3.953-1.203-1.11-.88-1.664-2.367-1.664-4.46zm5.89-3.453c-1.964 0-2.945 1.154-2.945 3.461 0 2.302.981 3.453 2.945 3.453 1.963 0 2.945-1.15 2.945-3.453 0-2.307-.982-3.46-2.945-3.46zm7.937 2.18c-.516-.463-.773-1.094-.773-1.89 0-.803.257-1.436.773-1.9.52-.463 1.17-.694 1.945-.694.782 0 1.43.231 1.946.695.52.463.78 1.096.78 1.898 0 .797-.26 1.427-.78 1.891-.516.463-1.164.695-1.946.695-.776 0-1.424-.232-1.945-.695zm-.195 6.438c0-.079.05-.178.148-.297l7.79-9.727c.385-.49.838-.737 1.359-.742h1.25c.203 0 .333.08.39.242a.639.639 0 01.024.195c0 .084-.047.185-.141.305l-7.797 9.727c-.385.49-.839.734-1.36.734h-1.25c-.275 0-.413-.146-.413-.438zm1.484-9.165c-.156.204-.234.482-.234.836 0 .35.078.625.234.828.161.204.38.305.656.305.282 0 .5-.101.657-.305.161-.203.242-.479.242-.828 0-.354-.081-.632-.242-.836-.157-.203-.376-.304-.657-.304a.794.794 0 00-.656.304zm5.383 9.047c-.516-.463-.774-1.093-.774-1.89 0-.802.258-1.435.774-1.899.52-.463 1.17-.695 1.945-.695.781 0 1.43.232 1.945.695.521.464.782 1.097.782 1.899 0 .797-.26 1.427-.781 1.89-.516.464-1.165.696-1.946.696-.776 0-1.424-.232-1.945-.696zm1.289-2.726c-.156.203-.234.482-.234.836 0 .349.078.625.234.828.161.203.38.305.656.305.281 0 .5-.102.656-.305.162-.203.243-.48.243-.828 0-.354-.081-.633-.243-.836-.156-.203-.375-.305-.656-.305a.794.794 0 00-.656.305zm21.57 2.125c-1.063.932-2.625 1.398-4.688 1.398-2.057 0-3.62-.466-4.687-1.398-1.068-.938-1.602-2.42-1.602-4.446s.534-3.505 1.602-4.437c1.067-.932 2.63-1.398 4.687-1.398 2.063 0 3.625.466 4.688 1.398 1.067.932 1.601 2.411 1.601 4.437 0 2.026-.534 3.508-1.601 4.446zm-2.133-7.235c-.526-.625-1.378-.937-2.555-.937-1.172 0-2.023.312-2.555.937-.526.625-.789 1.558-.789 2.797 0 1.235.263 2.164.79 2.79.53.62 1.382.929 2.554.929 1.177 0 2.029-.31 2.555-.93.526-.625.789-1.554.789-2.789 0-1.24-.263-2.172-.79-2.797zm5.663 7.641v-9.727c0-.203.073-.375.22-.515.145-.14.32-.211.523-.211h9.008c.203 0 .375.073.515.219.146.146.219.32.219.523v.734a.714.714 0 01-.219.524.7.7 0 01-.515.21h-6.805v2.75h5.539a.69.69 0 01.516.22.708.708 0 01.218.515v.742a.717.717 0 01-.218.524.703.703 0 01-.516.21h-5.539v3.282a.732.732 0 01-.219.54.701.701 0 01-.516.21h-1.468a.733.733 0 01-.742-.75zm12.086 0v-9.727c0-.203.073-.375.219-.515.146-.14.32-.211.523-.211h9.008a.69.69 0 01.516.219c.146.146.219.32.219.523v.734a.714.714 0 01-.219.524.703.703 0 01-.516.21h-6.805v2.75h5.54c.203 0 .375.074.515.22a.705.705 0 01.219.515v.742a.714.714 0 01-.219.524.7.7 0 01-.515.21h-5.54v3.282a.732.732 0 01-.218.54.703.703 0 01-.516.21h-1.469a.732.732 0 01-.742-.75z"/></g><defs><linearGradient id="paint0_linear_7108_1221" x1="34" x2="134.5" y1="26" y2="26" gradientUnits="userSpaceOnUse"><stop offset=".038" stop-color="#4D4D4D"/><stop offset=".178" stop-color="#857C66"/><stop offset=".524" stop-color="#fff"/><stop offset=".702" stop-color="#C2BEB3"/><stop offset="1" stop-color="#4D4D4D" stop-opacity=".831"/></linearGradient><linearGradient id="paint2_linear_7108_1221" x1="80.666" x2="80.666" y1="-4" y2="57" gradientUnits="userSpaceOnUse"><stop stop-color="#fff"/><stop offset="1" stop-color="#C7C7C7"/></linearGradient><linearGradient id="paint3_linear_7108_1221" x1="17" x2="143" y1="26.5" y2="26.5" gradientUnits="userSpaceOnUse"><stop stop-color="#7A7A7A"/><stop offset=".37" stop-color="#fff"/><stop offset="1" stop-color="#555"/></linearGradient><radialGradient id="paint1_radial_7108_1221" cx="0" cy="0" r="1" gradientTransform="matrix(124.49976 -25 65.5739 326.55732 58 32)" gradientUnits="userSpaceOnUse"><stop stop-color="#fff"/><stop offset="1" stop-color="#676767" stop-opacity=".44"/></radialGradient><filter id="filter0_i_7108_1221" width="81.07" height="12.68" x="40.369" y="20.563" color-interpolation-filters="sRGB" filterUnits="userSpaceOnUse"><feFlood flood-opacity="0" result="BackgroundImageFix"/><feBlend in="SourceGraphic" in2="BackgroundImageFix" result="shape"/><feColorMatrix in="SourceAlpha" result="hardAlpha" values="0 0 0 0 0 0 0 0 0 0 0 0 0 0 0 0 0 0 127 0"/><feOffset dy="1"/><feGaussianBlur stdDeviation=".5"/><feComposite in2="hardAlpha" k2="-1" k3="1" operator="arithmetic"/><feColorMatrix values="0 0 0 0 0 0 0 0 0 0 0 0 0 0 0 0 0 0 0.25 0"/><feBlend in2="shape" result="effect1_innerShadow_7108_1221"/></filter></defs></svg>