<svg width="160" height="52" viewBox="0 0 160 52" fill="none" xmlns="http://www.w3.org/2000/svg">
<mask id="path-1-inside-1_7108_1222" fill="white">
<path d="M151 0C155.971 0 160 4.02944 160 9V18C160 18.5523 159.55 18.9925 159.003 19.0705C155.609 19.5544 153 22.4725 153 26C153 29.5275 155.609 32.4456 159.003 32.9295C159.55 33.0075 160 33.4477 160 34V43C160 47.9706 155.971 52 151 52H9C4.02944 52 1.28855e-07 47.9706 0 43V34C0 33.4477 0.450278 33.0075 0.997032 32.9295C4.39077 32.4456 7 29.5275 7 26C7 22.4725 4.39077 19.5544 0.997031 19.0705C0.450277 18.9925 0 18.5523 0 18V9C1.28855e-07 4.02944 4.02944 0 9 0H151Z"/>
</mask>
<path d="M151 0C155.971 0 160 4.02944 160 9V18C160 18.5523 159.55 18.9925 159.003 19.0705C155.609 19.5544 153 22.4725 153 26C153 29.5275 155.609 32.4456 159.003 32.9295C159.55 33.0075 160 33.4477 160 34V43C160 47.9706 155.971 52 151 52H9C4.02944 52 1.28855e-07 47.9706 0 43V34C0 33.4477 0.450278 33.0075 0.997032 32.9295C4.39077 32.4456 7 29.5275 7 26C7 22.4725 4.39077 19.5544 0.997031 19.0705C0.450277 18.9925 0 18.5523 0 18V9C1.28855e-07 4.02944 4.02944 0 9 0H151Z" fill="#E9E7E6"/>
<path d="M151 0C155.971 0 160 4.02944 160 9V18C160 18.5523 159.55 18.9925 159.003 19.0705C155.609 19.5544 153 22.4725 153 26C153 29.5275 155.609 32.4456 159.003 32.9295C159.55 33.0075 160 33.4477 160 34V43C160 47.9706 155.971 52 151 52H9C4.02944 52 1.28855e-07 47.9706 0 43V34C0 33.4477 0.450278 33.0075 0.997032 32.9295C4.39077 32.4456 7 29.5275 7 26C7 22.4725 4.39077 19.5544 0.997031 19.0705C0.450277 18.9925 0 18.5523 0 18V9C1.28855e-07 4.02944 4.02944 0 9 0H151Z" fill="url(#paint0_linear_7108_1222)"/>
<path d="M151 0C155.971 0 160 4.02944 160 9V18C160 18.5523 159.55 18.9925 159.003 19.0705C155.609 19.5544 153 22.4725 153 26C153 29.5275 155.609 32.4456 159.003 32.9295C159.55 33.0075 160 33.4477 160 34V43C160 47.9706 155.971 52 151 52H9C4.02944 52 1.28855e-07 47.9706 0 43V34C0 33.4477 0.450278 33.0075 0.997032 32.9295C4.39077 32.4456 7 29.5275 7 26C7 22.4725 4.39077 19.5544 0.997031 19.0705C0.450277 18.9925 0 18.5523 0 18V9C1.28855e-07 4.02944 4.02944 0 9 0H151Z" fill="url(#paint1_radial_7108_1222)" fill-opacity="0.8"/>
<path d="M160 9H160.5H160ZM160 43H160.5H160ZM0 43H-0.5H0ZM0 9H-0.5H0ZM0.997031 19.0705L0.926444 19.5655L0.997031 19.0705ZM0.997032 32.9295L0.926445 32.4345L0.997032 32.9295ZM159.003 32.9295L159.074 32.4345L159.003 32.9295ZM151 0V0.5C155.694 0.5 159.5 4.30558 159.5 9H160H160.5C160.5 3.7533 156.247 -0.5 151 -0.5V0ZM160 9H159.5V18H160H160.5V9H160ZM159.003 19.0705L158.932 18.5755C155.296 19.0941 152.5 22.2201 152.5 26H153H153.5C153.5 22.7249 155.923 20.0148 159.074 19.5655L159.003 19.0705ZM153 26H152.5C152.5 29.7799 155.296 32.9059 158.932 33.4245L159.003 32.9295L159.074 32.4345C155.923 31.9852 153.5 29.2751 153.5 26H153ZM160 34H159.5V43H160H160.5V34H160ZM160 43H159.5C159.5 47.6944 155.694 51.5 151 51.5V52V52.5C156.247 52.5 160.5 48.2467 160.5 43H160ZM151 52V51.5H9V52V52.5H151V52ZM9 52V51.5C4.30558 51.5 0.5 47.6944 0.5 43H0H-0.5C-0.5 48.2467 3.7533 52.5 9 52.5V52ZM0 43H0.5V34H0H-0.5V43H0ZM0.997032 32.9295L1.06762 33.4245C4.70424 32.9059 7.5 29.7799 7.5 26H7H6.5C6.5 29.2751 4.07731 31.9852 0.926445 32.4345L0.997032 32.9295ZM7 26H7.5C7.5 22.2201 4.70424 19.0941 1.06762 18.5755L0.997031 19.0705L0.926444 19.5655C4.07731 20.0148 6.5 22.7249 6.5 26H7ZM0 18H0.5V9H0H-0.5V18H0ZM0 9H0.5C0.5 4.30558 4.30558 0.5 9 0.5V0V-0.5C3.7533 -0.5 -0.5 3.7533 -0.5 9H0ZM9 0V0.5H151V0V-0.5H9V0ZM0.997031 19.0705L1.06762 18.5755C0.722868 18.5263 0.5 18.2611 0.5 18H0H-0.5C-0.5 18.8435 0.177687 19.4587 0.926444 19.5655L0.997031 19.0705ZM0 34H0.5C0.5 33.7389 0.722868 33.4737 1.06762 33.4245L0.997032 32.9295L0.926445 32.4345C0.177688 32.5413 -0.5 33.1565 -0.5 34H0ZM159.003 32.9295L158.932 33.4245C159.277 33.4737 159.5 33.7389 159.5 34H160H160.5C160.5 33.1565 159.822 32.5413 159.074 32.4345L159.003 32.9295ZM160 18H159.5C159.5 18.2611 159.277 18.5263 158.932 18.5755L159.003 19.0705L159.074 19.5655C159.822 19.4587 160.5 18.8435 160.5 18H160Z" fill="url(#paint2_linear_7108_1222)" mask="url(#path-1-inside-1_7108_1222)"/>
<rect x="16.35" y="10.35" width="125.3" height="32.3" rx="3.65" stroke="url(#paint3_linear_7108_1222)" stroke-width="0.7"/>
<g filter="url(#filter0_i_7108_1222)">
<path d="M39.0654 28.9453C39.0654 28.6328 39.1565 28.4115 39.3388 28.2812C39.5211 28.1458 39.6982 28.0781 39.8701 28.0781H40.792C41.2763 28.0781 41.6565 28.375 41.9326 28.9688C42.2086 29.5625 42.844 29.8594 43.8388 29.8594H44.956C45.5966 29.8594 46.0654 29.7682 46.3623 29.5859C46.6591 29.4036 46.8076 29.0938 46.8076 28.6562C46.8076 28.2188 46.6591 27.9089 46.3623 27.7266C46.0654 27.5443 45.5966 27.4531 44.956 27.4531H43.5498C43.3466 27.4531 43.1722 27.3828 43.0263 27.2422C42.8805 27.0964 42.8076 26.9219 42.8076 26.7188V26.0781C42.8076 25.8854 42.8779 25.7161 43.0185 25.5703C43.1591 25.4193 43.3258 25.3438 43.5185 25.3438H44.667C45.3597 25.3438 45.8623 25.2526 46.1748 25.0703C46.4925 24.888 46.6513 24.5781 46.6513 24.1406C46.6513 23.7031 46.4925 23.3958 46.1748 23.2188C45.8623 23.0365 45.3597 22.9453 44.667 22.9453H44.0888C43.0888 22.9453 42.4274 23.2656 42.1045 23.9062C41.8701 24.3958 41.5185 24.6406 41.0498 24.6406H40.1201C39.8701 24.6406 39.6748 24.5495 39.5341 24.3672C39.3935 24.1849 39.3232 23.987 39.3232 23.7734C39.3232 23.1797 39.5498 22.6458 40.0029 22.1719C40.456 21.6927 41.0211 21.3333 41.6982 21.0938C42.3753 20.8542 43.081 20.7344 43.8154 20.7344H44.8935C48.0289 20.7344 49.5966 21.875 49.5966 24.1562C49.5966 25.1094 49.2399 25.8568 48.5263 26.3984C49.344 26.9141 49.7529 27.6667 49.7529 28.6562C49.7529 29.8594 49.3675 30.7292 48.5966 31.2656C47.831 31.7969 46.7086 32.0625 45.2295 32.0625H43.5654C42.3987 32.0625 41.3571 31.776 40.4404 31.2031C39.5237 30.625 39.0654 29.8724 39.0654 28.9453ZM51.0416 26.3984C51.0416 25.3516 51.1849 24.4531 51.4713 23.7031C51.763 22.9531 52.1745 22.3672 52.7057 21.9453C53.7161 21.138 55.0338 20.7344 56.6588 20.7344H57.2057C58.8307 20.7344 60.1484 21.138 61.1588 21.9453C62.2682 22.8307 62.8229 24.3151 62.8229 26.3984C62.8229 28.4922 62.2682 29.9792 61.1588 30.8594C60.1484 31.6615 58.8307 32.0625 57.2057 32.0625H56.6588C55.0338 32.0625 53.7161 31.6615 52.7057 30.8594C51.5963 29.9792 51.0416 28.4922 51.0416 26.3984ZM56.9323 22.9453C54.9687 22.9453 53.987 24.099 53.987 26.4062C53.987 28.7083 54.9687 29.8594 56.9323 29.8594C58.8958 29.8594 59.8776 28.7083 59.8776 26.4062C59.8776 24.099 58.8958 22.9453 56.9323 22.9453ZM64.8695 25.125C64.3538 24.6615 64.096 24.0312 64.096 23.2344C64.096 22.4323 64.3538 21.7995 64.8695 21.3359C65.3903 20.8724 66.0387 20.6406 66.8148 20.6406C67.596 20.6406 68.2445 20.8724 68.7601 21.3359C69.2809 21.7995 69.5413 22.4323 69.5413 23.2344C69.5413 24.0312 69.2809 24.6615 68.7601 25.125C68.2445 25.5885 67.596 25.8203 66.8148 25.8203C66.0387 25.8203 65.3903 25.5885 64.8695 25.125ZM64.6741 31.5625C64.6741 31.4844 64.7236 31.3854 64.8226 31.2656L72.6116 21.5391C72.9971 21.0495 73.4502 20.8021 73.971 20.7969H75.221C75.4241 20.7969 75.5543 20.8776 75.6116 21.0391C75.6273 21.0859 75.6351 21.151 75.6351 21.2344C75.6351 21.3177 75.5882 21.4193 75.4945 21.5391L67.6976 31.2656C67.3122 31.7552 66.859 32 66.3382 32H65.0882C64.8122 32 64.6741 31.8542 64.6741 31.5625ZM66.1585 22.3984C66.0023 22.6016 65.9241 22.8802 65.9241 23.2344C65.9241 23.5833 66.0023 23.8594 66.1585 24.0625C66.32 24.2656 66.5387 24.3672 66.8148 24.3672C67.096 24.3672 67.3148 24.2656 67.471 24.0625C67.6325 23.8594 67.7132 23.5833 67.7132 23.2344C67.7132 22.8802 67.6325 22.6016 67.471 22.3984C67.3148 22.1953 67.096 22.0938 66.8148 22.0938C66.5387 22.0938 66.32 22.1953 66.1585 22.3984ZM71.5413 31.4453C71.0257 30.9818 70.7679 30.3516 70.7679 29.5547C70.7679 28.7526 71.0257 28.1198 71.5413 27.6562C72.0622 27.1927 72.7106 26.9609 73.4866 26.9609C74.2679 26.9609 74.9163 27.1927 75.432 27.6562C75.9528 28.1198 76.2132 28.7526 76.2132 29.5547C76.2132 30.3516 75.9528 30.9818 75.432 31.4453C74.9163 31.9089 74.2679 32.1406 73.4866 32.1406C72.7106 32.1406 72.0622 31.9089 71.5413 31.4453ZM72.8304 28.7188C72.6741 28.9219 72.596 29.2005 72.596 29.5547C72.596 29.9036 72.6741 30.1797 72.8304 30.3828C72.9918 30.5859 73.2106 30.6875 73.4866 30.6875C73.7679 30.6875 73.9866 30.5859 74.1429 30.3828C74.3043 30.1797 74.3851 29.9036 74.3851 29.5547C74.3851 29.2005 74.3043 28.9219 74.1429 28.7188C73.9866 28.5156 73.7679 28.4141 73.4866 28.4141C73.2106 28.4141 72.9918 28.5156 72.8304 28.7188ZM94.4001 30.8438C93.3376 31.776 91.7751 32.2422 89.7126 32.2422C87.6553 32.2422 86.0928 31.776 85.0251 30.8438C83.9574 29.9062 83.4235 28.4245 83.4235 26.3984C83.4235 24.3724 83.9574 22.8932 85.0251 21.9609C86.0928 21.0286 87.6553 20.5625 89.7126 20.5625C91.7751 20.5625 93.3376 21.0286 94.4001 21.9609C95.4678 22.8932 96.0016 24.3724 96.0016 26.3984C96.0016 28.4245 95.4678 29.9062 94.4001 30.8438ZM92.2673 23.6094C91.7412 22.9844 90.8897 22.6719 89.7126 22.6719C88.5407 22.6719 87.6891 22.9844 87.1579 23.6094C86.6318 24.2344 86.3688 25.1667 86.3688 26.4062C86.3688 27.6406 86.6318 28.5703 87.1579 29.1953C87.6891 29.8151 88.5407 30.125 89.7126 30.125C90.8897 30.125 91.7412 29.8151 92.2673 29.1953C92.7933 28.5703 93.0563 27.6406 93.0563 26.4062C93.0563 25.1667 92.7933 24.2344 92.2673 23.6094ZM97.931 31.25V21.5234C97.931 21.3203 98.0039 21.1484 98.1498 21.0078C98.2956 20.8672 98.4701 20.7969 98.6732 20.7969H107.681C107.884 20.7969 108.056 20.8698 108.197 21.0156C108.342 21.1615 108.415 21.3359 108.415 21.5391V22.2734C108.415 22.4766 108.342 22.651 108.197 22.7969C108.056 22.9375 107.884 23.0078 107.681 23.0078H100.876V25.7578H106.415C106.619 25.7578 106.79 25.8307 106.931 25.9766C107.077 26.1224 107.15 26.2943 107.15 26.4922V27.2344C107.15 27.4375 107.077 27.612 106.931 27.7578C106.79 27.8984 106.619 27.9688 106.415 27.9688H100.876V31.25C100.876 31.4635 100.803 31.6432 100.658 31.7891C100.517 31.9297 100.345 32 100.142 32H98.6732C98.4701 32 98.2956 31.9297 98.1498 31.7891C98.0039 31.6432 97.931 31.4635 97.931 31.25ZM110.017 31.25V21.5234C110.017 21.3203 110.09 21.1484 110.235 21.0078C110.381 20.8672 110.556 20.7969 110.759 20.7969H119.767C119.97 20.7969 120.142 20.8698 120.282 21.0156C120.428 21.1615 120.501 21.3359 120.501 21.5391V22.2734C120.501 22.4766 120.428 22.651 120.282 22.7969C120.142 22.9375 119.97 23.0078 119.767 23.0078H112.962V25.7578H118.501C118.704 25.7578 118.876 25.8307 119.017 25.9766C119.162 26.1224 119.235 26.2943 119.235 26.4922V27.2344C119.235 27.4375 119.162 27.612 119.017 27.7578C118.876 27.8984 118.704 27.9688 118.501 27.9688H112.962V31.25C112.962 31.4635 112.889 31.6432 112.743 31.7891C112.603 31.9297 112.431 32 112.228 32H110.759C110.556 32 110.381 31.9297 110.235 31.7891C110.09 31.6432 110.017 31.4635 110.017 31.25Z" fill="#6F5948"/>
</g>
<defs>
<filter id="filter0_i_7108_1222" x="39.0645" y="20.5625" width="81.4375" height="12.6797" filterUnits="userSpaceOnUse" color-interpolation-filters="sRGB">
<feFlood flood-opacity="0" result="BackgroundImageFix"/>
<feBlend mode="normal" in="SourceGraphic" in2="BackgroundImageFix" result="shape"/>
<feColorMatrix in="SourceAlpha" type="matrix" values="0 0 0 0 0 0 0 0 0 0 0 0 0 0 0 0 0 0 127 0" result="hardAlpha"/>
<feOffset dy="1"/>
<feGaussianBlur stdDeviation="0.5"/>
<feComposite in2="hardAlpha" operator="arithmetic" k2="-1" k3="1"/>
<feColorMatrix type="matrix" values="0 0 0 0 0 0 0 0 0 0 0 0 0 0 0 0 0 0 0.25 0"/>
<feBlend mode="normal" in2="shape" result="effect1_innerShadow_7108_1222"/>
</filter>
<linearGradient id="paint0_linear_7108_1222" x1="-8" y1="23" x2="166" y2="12.5" gradientUnits="userSpaceOnUse">
<stop stop-color="#6D5B46"/>
<stop offset="0.524038" stop-color="white"/>
<stop offset="1" stop-color="#6D5B46"/>
</linearGradient>
<radialGradient id="paint1_radial_7108_1222" cx="0" cy="0" r="1" gradientUnits="userSpaceOnUse" gradientTransform="translate(77.5 22) rotate(33.3336) scale(89.1698 233.888)">
<stop stop-color="#CD9E84"/>
<stop offset="1" stop-color="#6C5B46"/>
</radialGradient>
<linearGradient id="paint2_linear_7108_1222" x1="80" y1="-4" x2="80" y2="57" gradientUnits="userSpaceOnUse">
<stop stop-color="white"/>
<stop offset="1" stop-color="#C7C7C7"/>
</linearGradient>
<linearGradient id="paint3_linear_7108_1222" x1="16" y1="26.5" x2="142" y2="26.5" gradientUnits="userSpaceOnUse">
<stop stop-color="#674F36"/>
<stop offset="0.370192" stop-color="white"/>
<stop offset="1" stop-color="#674F36"/>
</linearGradient>
</defs>
</svg>
