<svg width="161" height="52" viewBox="0 0 161 52" fill="none" xmlns="http://www.w3.org/2000/svg">
<mask id="path-1-inside-1_8005_8944" fill="white">
<path d="M151.666 0C156.637 0 160.666 4.02944 160.666 9V18C160.666 18.5523 160.216 18.9925 159.669 19.0705C156.275 19.5544 153.666 22.4725 153.666 26C153.666 29.5275 156.275 32.4456 159.669 32.9295C160.216 33.0075 160.666 33.4477 160.666 34V43C160.666 47.9706 156.637 52 151.666 52H9.66602C4.69545 52 0.666016 47.9706 0.666016 43V34C0.666016 33.4477 1.11629 33.0075 1.66305 32.9295C5.05679 32.4456 7.66602 29.5275 7.66602 26C7.66602 22.4725 5.05679 19.5544 1.66305 19.0705C1.11629 18.9925 0.666016 18.5523 0.666016 18V9C0.666016 4.02944 4.69545 0 9.66602 0H151.666Z"/>
</mask>
<path d="M151.666 0C156.637 0 160.666 4.02944 160.666 9V18C160.666 18.5523 160.216 18.9925 159.669 19.0705C156.275 19.5544 153.666 22.4725 153.666 26C153.666 29.5275 156.275 32.4456 159.669 32.9295C160.216 33.0075 160.666 33.4477 160.666 34V43C160.666 47.9706 156.637 52 151.666 52H9.66602C4.69545 52 0.666016 47.9706 0.666016 43V34C0.666016 33.4477 1.11629 33.0075 1.66305 32.9295C5.05679 32.4456 7.66602 29.5275 7.66602 26C7.66602 22.4725 5.05679 19.5544 1.66305 19.0705C1.11629 18.9925 0.666016 18.5523 0.666016 18V9C0.666016 4.02944 4.69545 0 9.66602 0H151.666Z" fill="#FFEFB4"/>
<path d="M151.666 0C156.637 0 160.666 4.02944 160.666 9V18C160.666 18.5523 160.216 18.9925 159.669 19.0705C156.275 19.5544 153.666 22.4725 153.666 26C153.666 29.5275 156.275 32.4456 159.669 32.9295C160.216 33.0075 160.666 33.4477 160.666 34V43C160.666 47.9706 156.637 52 151.666 52H9.66602C4.69545 52 0.666016 47.9706 0.666016 43V34C0.666016 33.4477 1.11629 33.0075 1.66305 32.9295C5.05679 32.4456 7.66602 29.5275 7.66602 26C7.66602 22.4725 5.05679 19.5544 1.66305 19.0705C1.11629 18.9925 0.666016 18.5523 0.666016 18V9C0.666016 4.02944 4.69545 0 9.66602 0H151.666Z" fill="url(#paint0_linear_8005_8944)"/>
<path d="M151.666 0C156.637 0 160.666 4.02944 160.666 9V18C160.666 18.5523 160.216 18.9925 159.669 19.0705C156.275 19.5544 153.666 22.4725 153.666 26C153.666 29.5275 156.275 32.4456 159.669 32.9295C160.216 33.0075 160.666 33.4477 160.666 34V43C160.666 47.9706 156.637 52 151.666 52H9.66602C4.69545 52 0.666016 47.9706 0.666016 43V34C0.666016 33.4477 1.11629 33.0075 1.66305 32.9295C5.05679 32.4456 7.66602 29.5275 7.66602 26C7.66602 22.4725 5.05679 19.5544 1.66305 19.0705C1.11629 18.9925 0.666016 18.5523 0.666016 18V9C0.666016 4.02944 4.69545 0 9.66602 0H151.666Z" fill="url(#paint1_radial_8005_8944)" fill-opacity="0.8"/>
<path d="M160.666 9L161.166 9V9L160.666 9ZM160.666 43L161.166 43V43H160.666ZM0.666016 43L0.166016 43L0.166016 43L0.666016 43ZM0.666016 9L0.166016 9V9H0.666016ZM1.66305 19.0705L1.59246 19.5655L1.66305 19.0705ZM1.66305 32.9295L1.59246 32.4345L1.66305 32.9295ZM159.669 32.9295L159.74 32.4345L159.669 32.9295ZM151.666 0V0.5C156.36 0.5 160.166 4.30558 160.166 9L160.666 9L161.166 9C161.166 3.7533 156.913 -0.5 151.666 -0.5V0ZM160.666 9H160.166V18H160.666H161.166V9H160.666ZM159.669 19.0705L159.598 18.5755C155.962 19.0941 153.166 22.2201 153.166 26H153.666H154.166C154.166 22.7249 156.589 20.0148 159.74 19.5655L159.669 19.0705ZM153.666 26H153.166C153.166 29.7799 155.962 32.9059 159.598 33.4245L159.669 32.9295L159.74 32.4345C156.589 31.9852 154.166 29.2751 154.166 26H153.666ZM160.666 34H160.166V43H160.666H161.166V34H160.666ZM160.666 43L160.166 43C160.166 47.6944 156.36 51.5 151.666 51.5V52V52.5C156.913 52.5 161.166 48.2467 161.166 43L160.666 43ZM151.666 52V51.5H9.66602V52V52.5H151.666V52ZM9.66602 52V51.5C4.9716 51.5 1.16602 47.6944 1.16602 43L0.666016 43L0.166016 43C0.166016 48.2467 4.41931 52.5 9.66602 52.5V52ZM0.666016 43H1.16602V34H0.666016H0.166016V43H0.666016ZM1.66305 32.9295L1.73363 33.4245C5.37025 32.9059 8.16602 29.7799 8.16602 26H7.66602H7.16602C7.16602 29.2751 4.74332 31.9852 1.59246 32.4345L1.66305 32.9295ZM7.66602 26H8.16602C8.16602 22.2201 5.37025 19.0941 1.73363 18.5755L1.66305 19.0705L1.59246 19.5655C4.74332 20.0148 7.16602 22.7249 7.16602 26H7.66602ZM0.666016 18H1.16602V9H0.666016H0.166016V18H0.666016ZM0.666016 9L1.16602 9C1.16602 4.30558 4.9716 0.5 9.66602 0.5V0V-0.5C4.41931 -0.5 0.166016 3.7533 0.166016 9L0.666016 9ZM9.66602 0V0.5H151.666V0V-0.5H9.66602V0ZM1.66305 19.0705L1.73363 18.5755C1.38888 18.5263 1.16602 18.2611 1.16602 18H0.666016H0.166016C0.166016 18.8435 0.843702 19.4587 1.59246 19.5655L1.66305 19.0705ZM0.666016 34H1.16602C1.16602 33.7389 1.38888 33.4737 1.73363 33.4245L1.66305 32.9295L1.59246 32.4345C0.843704 32.5413 0.166016 33.1565 0.166016 34H0.666016ZM159.669 32.9295L159.598 33.4245C159.943 33.4737 160.166 33.7389 160.166 34H160.666H161.166C161.166 33.1565 160.488 32.5413 159.74 32.4345L159.669 32.9295ZM160.666 18H160.166C160.166 18.2611 159.943 18.5263 159.598 18.5755L159.669 19.0705L159.74 19.5655C160.488 19.4587 161.166 18.8435 161.166 18H160.666Z" fill="url(#paint2_linear_8005_8944)" mask="url(#path-1-inside-1_8005_8944)"/>
<rect x="17.35" y="10.35" width="125.3" height="32.3" rx="3.65" stroke="url(#paint3_linear_8005_8944)" stroke-width="0.7"/>
<defs>
<linearGradient id="paint0_linear_8005_8944" x1="-7.33398" y1="23" x2="160.666" y2="24" gradientUnits="userSpaceOnUse">
<stop stop-color="#F7B00C"/>
<stop offset="0.524038" stop-color="#FFF6B1"/>
<stop offset="1" stop-color="#F7B10C"/>
</linearGradient>
<radialGradient id="paint1_radial_8005_8944" cx="0" cy="0" r="1" gradientUnits="userSpaceOnUse" gradientTransform="translate(78.166 22) rotate(70.3462) scale(59.4643 155.972)">
<stop stop-color="#FFFCBF"/>
<stop offset="1" stop-color="#FC9117" stop-opacity="0.44"/>
</radialGradient>
<linearGradient id="paint2_linear_8005_8944" x1="80.666" y1="-4" x2="80.666" y2="57" gradientUnits="userSpaceOnUse">
<stop stop-color="#FCFED0"/>
<stop offset="1" stop-color="#FFCC58"/>
</linearGradient>
<linearGradient id="paint3_linear_8005_8944" x1="17" y1="26.5" x2="143" y2="26.5" gradientUnits="userSpaceOnUse">
<stop stop-color="#B48015"/>
<stop offset="0.370192" stop-color="#FEF4CB"/>
<stop offset="1" stop-color="#B48015"/>
</linearGradient>
</defs>
</svg>
