<svg width="161" height="52" viewBox="0 0 161 52" fill="none" xmlns="http://www.w3.org/2000/svg">
<mask id="path-1-inside-1_7108_1220" fill="white">
<path d="M151.666 0C156.637 0 160.666 4.02944 160.666 9V18C160.666 18.5523 160.216 18.9925 159.669 19.0705C156.275 19.5544 153.666 22.4725 153.666 26C153.666 29.5275 156.275 32.4456 159.669 32.9295C160.216 33.0075 160.666 33.4477 160.666 34V43C160.666 47.9706 156.637 52 151.666 52H9.66602C4.69545 52 0.666016 47.9706 0.666016 43V34C0.666016 33.4477 1.11629 33.0075 1.66305 32.9295C5.05679 32.4456 7.66602 29.5275 7.66602 26C7.66602 22.4725 5.05679 19.5544 1.66305 19.0705C1.11629 18.9925 0.666016 18.5523 0.666016 18V9C0.666016 4.02944 4.69545 0 9.66602 0H151.666Z"/>
</mask>
<path d="M151.666 0C156.637 0 160.666 4.02944 160.666 9V18C160.666 18.5523 160.216 18.9925 159.669 19.0705C156.275 19.5544 153.666 22.4725 153.666 26C153.666 29.5275 156.275 32.4456 159.669 32.9295C160.216 33.0075 160.666 33.4477 160.666 34V43C160.666 47.9706 156.637 52 151.666 52H9.66602C4.69545 52 0.666016 47.9706 0.666016 43V34C0.666016 33.4477 1.11629 33.0075 1.66305 32.9295C5.05679 32.4456 7.66602 29.5275 7.66602 26C7.66602 22.4725 5.05679 19.5544 1.66305 19.0705C1.11629 18.9925 0.666016 18.5523 0.666016 18V9C0.666016 4.02944 4.69545 0 9.66602 0H151.666Z" fill="#FFEFB4"/>
<path d="M151.666 0C156.637 0 160.666 4.02944 160.666 9V18C160.666 18.5523 160.216 18.9925 159.669 19.0705C156.275 19.5544 153.666 22.4725 153.666 26C153.666 29.5275 156.275 32.4456 159.669 32.9295C160.216 33.0075 160.666 33.4477 160.666 34V43C160.666 47.9706 156.637 52 151.666 52H9.66602C4.69545 52 0.666016 47.9706 0.666016 43V34C0.666016 33.4477 1.11629 33.0075 1.66305 32.9295C5.05679 32.4456 7.66602 29.5275 7.66602 26C7.66602 22.4725 5.05679 19.5544 1.66305 19.0705C1.11629 18.9925 0.666016 18.5523 0.666016 18V9C0.666016 4.02944 4.69545 0 9.66602 0H151.666Z" fill="url(#paint0_linear_7108_1220)"/>
<path d="M151.666 0C156.637 0 160.666 4.02944 160.666 9V18C160.666 18.5523 160.216 18.9925 159.669 19.0705C156.275 19.5544 153.666 22.4725 153.666 26C153.666 29.5275 156.275 32.4456 159.669 32.9295C160.216 33.0075 160.666 33.4477 160.666 34V43C160.666 47.9706 156.637 52 151.666 52H9.66602C4.69545 52 0.666016 47.9706 0.666016 43V34C0.666016 33.4477 1.11629 33.0075 1.66305 32.9295C5.05679 32.4456 7.66602 29.5275 7.66602 26C7.66602 22.4725 5.05679 19.5544 1.66305 19.0705C1.11629 18.9925 0.666016 18.5523 0.666016 18V9C0.666016 4.02944 4.69545 0 9.66602 0H151.666Z" fill="url(#paint1_radial_7108_1220)" fill-opacity="0.8"/>
<path d="M160.666 9L161.166 9V9L160.666 9ZM160.666 43L161.166 43V43H160.666ZM0.666016 43L0.166016 43L0.166016 43L0.666016 43ZM0.666016 9L0.166016 9V9H0.666016ZM1.66305 19.0705L1.59246 19.5655L1.66305 19.0705ZM1.66305 32.9295L1.59246 32.4345L1.66305 32.9295ZM159.669 32.9295L159.74 32.4345L159.669 32.9295ZM151.666 0V0.5C156.36 0.5 160.166 4.30558 160.166 9L160.666 9L161.166 9C161.166 3.7533 156.913 -0.5 151.666 -0.5V0ZM160.666 9H160.166V18H160.666H161.166V9H160.666ZM159.669 19.0705L159.598 18.5755C155.962 19.0941 153.166 22.2201 153.166 26H153.666H154.166C154.166 22.7249 156.589 20.0148 159.74 19.5655L159.669 19.0705ZM153.666 26H153.166C153.166 29.7799 155.962 32.9059 159.598 33.4245L159.669 32.9295L159.74 32.4345C156.589 31.9852 154.166 29.2751 154.166 26H153.666ZM160.666 34H160.166V43H160.666H161.166V34H160.666ZM160.666 43L160.166 43C160.166 47.6944 156.36 51.5 151.666 51.5V52V52.5C156.913 52.5 161.166 48.2467 161.166 43L160.666 43ZM151.666 52V51.5H9.66602V52V52.5H151.666V52ZM9.66602 52V51.5C4.9716 51.5 1.16602 47.6944 1.16602 43L0.666016 43L0.166016 43C0.166016 48.2467 4.41931 52.5 9.66602 52.5V52ZM0.666016 43H1.16602V34H0.666016H0.166016V43H0.666016ZM1.66305 32.9295L1.73363 33.4245C5.37025 32.9059 8.16602 29.7799 8.16602 26H7.66602H7.16602C7.16602 29.2751 4.74332 31.9852 1.59246 32.4345L1.66305 32.9295ZM7.66602 26H8.16602C8.16602 22.2201 5.37025 19.0941 1.73363 18.5755L1.66305 19.0705L1.59246 19.5655C4.74332 20.0148 7.16602 22.7249 7.16602 26H7.66602ZM0.666016 18H1.16602V9H0.666016H0.166016V18H0.666016ZM0.666016 9L1.16602 9C1.16602 4.30558 4.9716 0.5 9.66602 0.5V0V-0.5C4.41931 -0.5 0.166016 3.7533 0.166016 9L0.666016 9ZM9.66602 0V0.5H151.666V0V-0.5H9.66602V0ZM1.66305 19.0705L1.73363 18.5755C1.38888 18.5263 1.16602 18.2611 1.16602 18H0.666016H0.166016C0.166016 18.8435 0.843702 19.4587 1.59246 19.5655L1.66305 19.0705ZM0.666016 34H1.16602C1.16602 33.7389 1.38888 33.4737 1.73363 33.4245L1.66305 32.9295L1.59246 32.4345C0.843704 32.5413 0.166016 33.1565 0.166016 34H0.666016ZM159.669 32.9295L159.598 33.4245C159.943 33.4737 160.166 33.7389 160.166 34H160.666H161.166C161.166 33.1565 160.488 32.5413 159.74 32.4345L159.669 32.9295ZM160.666 18H160.166C160.166 18.2611 159.943 18.5263 159.598 18.5755L159.669 19.0705L159.74 19.5655C160.488 19.4587 161.166 18.8435 161.166 18H160.666Z" fill="url(#paint2_linear_7108_1220)" mask="url(#path-1-inside-1_7108_1220)"/>
<rect x="17.35" y="10.35" width="125.3" height="32.3" rx="3.65" stroke="url(#paint3_linear_7108_1220)" stroke-width="0.7"/>
<g filter="url(#filter0_i_7108_1220)">
<path d="M25.8938 31.25V21.5234C25.8938 21.3203 25.9667 21.1484 26.1126 21.0078C26.2584 20.8672 26.4329 20.7969 26.636 20.7969H35.6438C35.847 20.7969 36.0188 20.8698 36.1595 21.0156C36.3053 21.1615 36.3782 21.3359 36.3782 21.5391V22.2734C36.3782 22.4766 36.3053 22.651 36.1595 22.7969C36.0188 22.9375 35.847 23.0078 35.6438 23.0078H28.8391V25.7578H34.3782C34.5813 25.7578 34.7532 25.8307 34.8938 25.9766C35.0397 26.1224 35.1126 26.2943 35.1126 26.4922V27.2344C35.1126 27.4375 35.0397 27.612 34.8938 27.7578C34.7532 27.8984 34.5813 27.9688 34.3782 27.9688H28.8391V31.25C28.8391 31.4635 28.7662 31.6432 28.6204 31.7891C28.4798 31.9297 28.3079 32 28.1048 32H26.636C26.4329 32 26.2584 31.9297 26.1126 31.7891C25.9667 31.6432 25.8938 31.4635 25.8938 31.25ZM49.6123 31.6641C49.6123 31.888 49.4795 32 49.2138 32H47.3388C47.1409 32 46.9222 31.9297 46.6826 31.7891C46.4482 31.6432 46.2685 31.4688 46.1435 31.2656L44.8154 29.1875C44.2685 28.3333 43.6071 27.9062 42.831 27.9062H40.9248V31.2656C40.9248 31.4688 40.8518 31.6432 40.706 31.7891C40.5654 31.9297 40.3935 32 40.1904 32H38.7216C38.5185 32 38.344 31.9297 38.1982 31.7891C38.0524 31.6432 37.9795 31.4688 37.9795 31.2656V21.5391C37.9795 21.3359 38.0498 21.1615 38.1904 21.0156C38.331 20.8698 38.5029 20.7969 38.706 20.7969H45.1513C46.344 20.7969 47.3206 21.1172 48.081 21.7578C48.8466 22.3984 49.2295 23.263 49.2295 24.3516C49.2295 25.8672 48.2477 26.8177 46.2841 27.2031C46.5966 27.3177 46.8857 27.5156 47.1513 27.7969C47.417 28.0729 47.7216 28.4766 48.0654 29.0078L49.4873 31.2656C49.5706 31.4115 49.6123 31.5443 49.6123 31.6641ZM40.9248 25.6953H44.2529C44.7893 25.6953 45.2607 25.5885 45.667 25.375C46.0784 25.1615 46.2841 24.8203 46.2841 24.3516C46.2841 23.8828 46.0784 23.5417 45.667 23.3281C45.2607 23.1146 44.7893 23.0078 44.2529 23.0078H40.9248V25.6953ZM51.237 31.25V21.5234C51.237 21.3203 51.3099 21.1484 51.4557 21.0078C51.6015 20.8672 51.776 20.7969 51.9791 20.7969H60.987C61.1901 20.7969 61.362 20.8698 61.5026 21.0156C61.6484 21.1615 61.7213 21.3359 61.7213 21.5391V22.2734C61.7213 22.4766 61.6484 22.651 61.5026 22.7969C61.362 22.9375 61.1901 23.0078 60.987 23.0078H54.1823V25.2812H60.0416C60.2448 25.2812 60.4166 25.3542 60.5573 25.5C60.7031 25.6406 60.776 25.8125 60.776 26.0156V26.75C60.776 26.9531 60.7031 27.1276 60.5573 27.2734C60.4166 27.4141 60.2448 27.4844 60.0416 27.4844H54.1823V29.7891H60.9713C61.1692 29.7891 61.3385 29.8594 61.4791 30C61.6198 30.1406 61.6901 30.3125 61.6901 30.5156V31.2656C61.6901 31.4688 61.6172 31.6432 61.4713 31.7891C61.3255 31.9297 61.151 32 60.9479 32H51.9791C51.776 32 51.6015 31.9297 51.4557 31.7891C51.3099 31.6432 51.237 31.4635 51.237 31.25ZM63.4788 31.25V21.5234C63.4788 21.3203 63.5517 21.1484 63.6976 21.0078C63.8434 20.8672 64.0179 20.7969 64.221 20.7969H73.2288C73.432 20.7969 73.6038 20.8698 73.7445 21.0156C73.8903 21.1615 73.9632 21.3359 73.9632 21.5391V22.2734C73.9632 22.4766 73.8903 22.651 73.7445 22.7969C73.6038 22.9375 73.432 23.0078 73.2288 23.0078H66.4241V25.2812H72.2835C72.4866 25.2812 72.6585 25.3542 72.7991 25.5C72.945 25.6406 73.0179 25.8125 73.0179 26.0156V26.75C73.0179 26.9531 72.945 27.1276 72.7991 27.2734C72.6585 27.4141 72.4866 27.4844 72.2835 27.4844H66.4241V29.7891H73.2132C73.4111 29.7891 73.5804 29.8594 73.721 30C73.8616 30.1406 73.932 30.3125 73.932 30.5156V31.2656C73.932 31.4688 73.859 31.6432 73.7132 31.7891C73.5674 31.9297 73.3929 32 73.1898 32H64.221C64.0179 32 63.8434 31.9297 63.6976 31.7891C63.5517 31.6432 63.4788 31.4635 63.4788 31.25ZM86.3766 32.0625C84.6475 32.0625 83.3193 31.5964 82.3923 30.6641C81.4704 29.7318 81.0095 28.3073 81.0095 26.3906C81.0095 24.4688 81.4912 23.0469 82.4548 22.125C83.4235 21.1979 84.874 20.7344 86.8063 20.7344H88.5485C89.6996 20.7344 90.736 21.0104 91.6579 21.5625C92.585 22.1094 93.0485 22.7943 93.0485 23.6172C93.0485 23.9245 92.9574 24.1458 92.7751 24.2812C92.5928 24.4115 92.4157 24.4766 92.2438 24.4766H91.3141C90.8662 24.4766 90.5095 24.2214 90.2438 23.7109C89.9782 23.2005 89.322 22.9453 88.2751 22.9453H86.8845C85.7438 22.9453 84.9704 23.1901 84.5641 23.6797C84.1579 24.1693 83.9548 25.0703 83.9548 26.3828C83.9548 27.6953 84.1371 28.6042 84.5016 29.1094C84.8662 29.6094 85.5173 29.8594 86.4548 29.8594H88.0563C88.8949 29.8594 89.4938 29.7005 89.8532 29.3828C90.2126 29.0599 90.3975 28.599 90.4079 28H88.6423C88.4391 28 88.2647 27.9297 88.1188 27.7891C87.9782 27.6432 87.9079 27.4688 87.9079 27.2656V26.6562C87.9079 26.4531 87.9782 26.2812 88.1188 26.1406C88.2647 25.9948 88.4391 25.9219 88.6423 25.9219H92.5641C92.7673 25.9219 92.9391 25.9948 93.0798 26.1406C93.2256 26.2812 93.2985 26.4531 93.2985 26.6562V27.5234C93.2985 28.9818 92.861 30.1042 91.986 30.8906C91.111 31.6719 89.8272 32.0625 88.1345 32.0625H86.3766ZM94.2982 31.2812L96.2591 23.8438C96.7904 21.8177 98.5196 20.8021 101.447 20.7969H105.658C105.85 20.7969 106.009 20.8698 106.134 21.0156C106.264 21.1615 106.329 21.3307 106.329 21.5234V31.2812C106.329 31.4844 106.257 31.6562 106.111 31.7969C105.965 31.9323 105.79 32 105.587 32H104.119C103.905 32 103.728 31.9323 103.587 31.7969C103.452 31.6562 103.384 31.4792 103.384 31.2656V29.2969H97.8295L97.306 31.2656C97.2539 31.4792 97.1367 31.6562 96.9545 31.7969C96.7722 31.9323 96.5795 32 96.3763 32H94.8373C94.6341 32 94.4883 31.9427 94.3998 31.8281C94.3112 31.7083 94.267 31.6042 94.267 31.5156C94.2722 31.4271 94.2826 31.349 94.2982 31.2812ZM98.4076 27.0859H103.384V23.0078H101.158C100.658 23.0078 100.22 23.151 99.8451 23.4375C99.4753 23.7188 99.2253 24.099 99.0951 24.5781L98.4076 27.0859ZM108.884 31.25V21.5547C108.884 21.3411 108.954 21.1615 109.095 21.0156C109.235 20.8698 109.407 20.7969 109.61 20.7969H112.79C112.993 20.7969 113.186 20.8698 113.368 21.0156C113.55 21.1615 113.673 21.3359 113.735 21.5391L116.04 28.2109L118.345 21.5391C118.407 21.3359 118.53 21.1615 118.712 21.0156C118.894 20.8698 119.087 20.7969 119.29 20.7969H122.47C122.673 20.7969 122.842 20.8698 122.978 21.0156C123.118 21.1615 123.189 21.3411 123.189 21.5547V31.25C123.189 31.4635 123.116 31.6432 122.97 31.7891C122.829 31.9297 122.657 32 122.454 32H121.048C120.845 32 120.67 31.9297 120.524 31.7891C120.384 31.6432 120.314 31.4635 120.314 31.25V23.6172L117.556 31.2969C117.483 31.4896 117.355 31.6562 117.173 31.7969C116.991 31.9323 116.798 32 116.595 32H115.478C115.274 32 115.082 31.9323 114.899 31.7969C114.722 31.6562 114.595 31.4896 114.517 31.2969L111.767 23.6172V31.25C111.767 31.4635 111.694 31.6432 111.548 31.7891C111.407 31.9297 111.235 32 111.032 32H109.626C109.423 32 109.248 31.9297 109.103 31.7891C108.957 31.6432 108.884 31.4635 108.884 31.25ZM125.751 31.25V21.5234C125.751 21.3203 125.824 21.1484 125.969 21.0078C126.115 20.8672 126.29 20.7969 126.493 20.7969H135.501C135.704 20.7969 135.876 20.8698 136.016 21.0156C136.162 21.1615 136.235 21.3359 136.235 21.5391V22.2734C136.235 22.4766 136.162 22.651 136.016 22.7969C135.876 22.9375 135.704 23.0078 135.501 23.0078H128.696V25.2812H134.555C134.759 25.2812 134.93 25.3542 135.071 25.5C135.217 25.6406 135.29 25.8125 135.29 26.0156V26.75C135.29 26.9531 135.217 27.1276 135.071 27.2734C134.93 27.4141 134.759 27.4844 134.555 27.4844H128.696V29.7891H135.485C135.683 29.7891 135.852 29.8594 135.993 30C136.134 30.1406 136.204 30.3125 136.204 30.5156V31.2656C136.204 31.4688 136.131 31.6432 135.985 31.7891C135.839 31.9297 135.665 32 135.462 32H126.493C126.29 32 126.115 31.9297 125.969 31.7891C125.824 31.6432 125.751 31.4635 125.751 31.25Z" fill="#B67703"/>
</g>
<defs>
<filter id="filter0_i_7108_1220" x="25.8945" y="20.7344" width="110.34" height="12.3281" filterUnits="userSpaceOnUse" color-interpolation-filters="sRGB">
<feFlood flood-opacity="0" result="BackgroundImageFix"/>
<feBlend mode="normal" in="SourceGraphic" in2="BackgroundImageFix" result="shape"/>
<feColorMatrix in="SourceAlpha" type="matrix" values="0 0 0 0 0 0 0 0 0 0 0 0 0 0 0 0 0 0 127 0" result="hardAlpha"/>
<feOffset dy="1"/>
<feGaussianBlur stdDeviation="0.5"/>
<feComposite in2="hardAlpha" operator="arithmetic" k2="-1" k3="1"/>
<feColorMatrix type="matrix" values="0 0 0 0 0 0 0 0 0 0 0 0 0 0 0 0 0 0 0.25 0"/>
<feBlend mode="normal" in2="shape" result="effect1_innerShadow_7108_1220"/>
</filter>
<linearGradient id="paint0_linear_7108_1220" x1="-7.33398" y1="23" x2="160.666" y2="24" gradientUnits="userSpaceOnUse">
<stop stop-color="#F7B00C"/>
<stop offset="0.524038" stop-color="#FFF6B1"/>
<stop offset="1" stop-color="#F7B10C"/>
</linearGradient>
<radialGradient id="paint1_radial_7108_1220" cx="0" cy="0" r="1" gradientUnits="userSpaceOnUse" gradientTransform="translate(78.166 22) rotate(70.3462) scale(59.4643 155.972)">
<stop stop-color="#FFFCBF"/>
<stop offset="1" stop-color="#FC9117" stop-opacity="0.44"/>
</radialGradient>
<linearGradient id="paint2_linear_7108_1220" x1="80.666" y1="-4" x2="80.666" y2="57" gradientUnits="userSpaceOnUse">
<stop stop-color="#FCFED0"/>
<stop offset="1" stop-color="#FFCC58"/>
</linearGradient>
<linearGradient id="paint3_linear_7108_1220" x1="17" y1="26.5" x2="143" y2="26.5" gradientUnits="userSpaceOnUse">
<stop stop-color="#B48015"/>
<stop offset="0.370192" stop-color="#FEF4CB"/>
<stop offset="1" stop-color="#B48015"/>
</linearGradient>
</defs>
</svg>
