<svg width="161" height="52" viewBox="0 0 161 52" fill="none" xmlns="http://www.w3.org/2000/svg">
<mask id="path-1-inside-1_7108_1221" fill="white">
<path d="M151.666 0C156.637 0 160.666 4.02944 160.666 9V18C160.666 18.5523 160.216 18.9925 159.669 19.0705C156.275 19.5544 153.666 22.4725 153.666 26C153.666 29.5275 156.275 32.4456 159.669 32.9295C160.216 33.0075 160.666 33.4477 160.666 34V43C160.666 47.9706 156.637 52 151.666 52H9.66602C4.69545 52 0.666016 47.9706 0.666016 43V34C0.666016 33.4477 1.11629 33.0075 1.66305 32.9295C5.05679 32.4456 7.66602 29.5275 7.66602 26C7.66602 22.4725 5.05679 19.5544 1.66305 19.0705C1.11629 18.9925 0.666016 18.5523 0.666016 18V9C0.666016 4.02944 4.69545 0 9.66602 0H151.666Z"/>
</mask>
<path d="M151.666 0C156.637 0 160.666 4.02944 160.666 9V18C160.666 18.5523 160.216 18.9925 159.669 19.0705C156.275 19.5544 153.666 22.4725 153.666 26C153.666 29.5275 156.275 32.4456 159.669 32.9295C160.216 33.0075 160.666 33.4477 160.666 34V43C160.666 47.9706 156.637 52 151.666 52H9.66602C4.69545 52 0.666016 47.9706 0.666016 43V34C0.666016 33.4477 1.11629 33.0075 1.66305 32.9295C5.05679 32.4456 7.66602 29.5275 7.66602 26C7.66602 22.4725 5.05679 19.5544 1.66305 19.0705C1.11629 18.9925 0.666016 18.5523 0.666016 18V9C0.666016 4.02944 4.69545 0 9.66602 0H151.666Z" fill="#E9E7E6"/>
<path d="M151.666 0C156.637 0 160.666 4.02944 160.666 9V18C160.666 18.5523 160.216 18.9925 159.669 19.0705C156.275 19.5544 153.666 22.4725 153.666 26C153.666 29.5275 156.275 32.4456 159.669 32.9295C160.216 33.0075 160.666 33.4477 160.666 34V43C160.666 47.9706 156.637 52 151.666 52H9.66602C4.69545 52 0.666016 47.9706 0.666016 43V34C0.666016 33.4477 1.11629 33.0075 1.66305 32.9295C5.05679 32.4456 7.66602 29.5275 7.66602 26C7.66602 22.4725 5.05679 19.5544 1.66305 19.0705C1.11629 18.9925 0.666016 18.5523 0.666016 18V9C0.666016 4.02944 4.69545 0 9.66602 0H151.666Z" fill="url(#paint0_linear_7108_1221)"/>
<path d="M151.666 0C156.637 0 160.666 4.02944 160.666 9V18C160.666 18.5523 160.216 18.9925 159.669 19.0705C156.275 19.5544 153.666 22.4725 153.666 26C153.666 29.5275 156.275 32.4456 159.669 32.9295C160.216 33.0075 160.666 33.4477 160.666 34V43C160.666 47.9706 156.637 52 151.666 52H9.66602C4.69545 52 0.666016 47.9706 0.666016 43V34C0.666016 33.4477 1.11629 33.0075 1.66305 32.9295C5.05679 32.4456 7.66602 29.5275 7.66602 26C7.66602 22.4725 5.05679 19.5544 1.66305 19.0705C1.11629 18.9925 0.666016 18.5523 0.666016 18V9C0.666016 4.02944 4.69545 0 9.66602 0H151.666Z" fill="url(#paint1_radial_7108_1221)" fill-opacity="0.8"/>
<path d="M160.666 9H161.166H160.666ZM160.666 43H161.166H160.666ZM0.666016 43H0.166016H0.666016ZM0.666016 9H0.166016H0.666016ZM1.66305 19.0705L1.59246 19.5655L1.66305 19.0705ZM1.66305 32.9295L1.59246 32.4345L1.66305 32.9295ZM159.669 32.9295L159.74 32.4345L159.669 32.9295ZM151.666 0V0.5C156.36 0.5 160.166 4.30558 160.166 9H160.666H161.166C161.166 3.7533 156.913 -0.5 151.666 -0.5V0ZM160.666 9H160.166V18H160.666H161.166V9H160.666ZM159.669 19.0705L159.598 18.5755C155.962 19.0941 153.166 22.2201 153.166 26H153.666H154.166C154.166 22.7249 156.589 20.0148 159.74 19.5655L159.669 19.0705ZM153.666 26H153.166C153.166 29.7799 155.962 32.9059 159.598 33.4245L159.669 32.9295L159.74 32.4345C156.589 31.9852 154.166 29.2751 154.166 26H153.666ZM160.666 34H160.166V43H160.666H161.166V34H160.666ZM160.666 43H160.166C160.166 47.6944 156.36 51.5 151.666 51.5V52V52.5C156.913 52.5 161.166 48.2467 161.166 43H160.666ZM151.666 52V51.5H9.66602V52V52.5H151.666V52ZM9.66602 52V51.5C4.9716 51.5 1.16602 47.6944 1.16602 43H0.666016H0.166016C0.166016 48.2467 4.41931 52.5 9.66602 52.5V52ZM0.666016 43H1.16602V34H0.666016H0.166016V43H0.666016ZM1.66305 32.9295L1.73363 33.4245C5.37025 32.9059 8.16602 29.7799 8.16602 26H7.66602H7.16602C7.16602 29.2751 4.74332 31.9852 1.59246 32.4345L1.66305 32.9295ZM7.66602 26H8.16602C8.16602 22.2201 5.37025 19.0941 1.73363 18.5755L1.66305 19.0705L1.59246 19.5655C4.74332 20.0148 7.16602 22.7249 7.16602 26H7.66602ZM0.666016 18H1.16602V9H0.666016H0.166016V18H0.666016ZM0.666016 9H1.16602C1.16602 4.30558 4.9716 0.5 9.66602 0.5V0V-0.5C4.41931 -0.5 0.166016 3.7533 0.166016 9H0.666016ZM9.66602 0V0.5H151.666V0V-0.5H9.66602V0ZM1.66305 19.0705L1.73363 18.5755C1.38888 18.5263 1.16602 18.2611 1.16602 18H0.666016H0.166016C0.166016 18.8435 0.843702 19.4587 1.59246 19.5655L1.66305 19.0705ZM0.666016 34H1.16602C1.16602 33.7389 1.38888 33.4737 1.73363 33.4245L1.66305 32.9295L1.59246 32.4345C0.843704 32.5413 0.166016 33.1565 0.166016 34H0.666016ZM159.669 32.9295L159.598 33.4245C159.943 33.4737 160.166 33.7389 160.166 34H160.666H161.166C161.166 33.1565 160.488 32.5413 159.74 32.4345L159.669 32.9295ZM160.666 18H160.166C160.166 18.2611 159.943 18.5263 159.598 18.5755L159.669 19.0705L159.74 19.5655C160.488 19.4587 161.166 18.8435 161.166 18H160.666Z" fill="url(#paint2_linear_7108_1221)" mask="url(#path-1-inside-1_7108_1221)"/>
<rect x="17.35" y="10.35" width="125.3" height="32.3" rx="3.65" stroke="url(#paint3_linear_7108_1221)" stroke-width="0.7"/>
<g filter="url(#filter0_i_7108_1221)">
<path d="M40.3701 29.2969C40.3701 28.9844 40.4612 28.763 40.6435 28.6328C40.8258 28.4974 41.0003 28.4297 41.167 28.4297H42.0966C42.5341 28.4297 42.8831 28.6693 43.1435 29.1484C43.4039 29.6224 43.9612 29.8594 44.8154 29.8594H46.0498C46.6904 29.8594 47.1591 29.7578 47.456 29.5547C47.7581 29.3516 47.9091 29.0052 47.9091 28.5156C47.9091 28.0208 47.7581 27.6745 47.456 27.4766C47.1591 27.2734 46.6904 27.1719 46.0498 27.1719H41.5029C41.2998 27.1719 41.1253 27.1016 40.9795 26.9609C40.8388 26.8203 40.7685 26.6484 40.7685 26.4453V21.5391C40.7685 21.3255 40.8388 21.1484 40.9795 21.0078C41.1253 20.8672 41.2998 20.7969 41.5029 20.7969H49.5498C49.7633 20.7969 49.9404 20.8672 50.081 21.0078C50.2216 21.1484 50.292 21.3255 50.292 21.5391V22.2734C50.292 22.487 50.2216 22.6641 50.081 22.8047C49.9404 22.9401 49.7633 23.0078 49.5498 23.0078H43.7138V24.9609H46.3232C47.8024 24.9609 48.9248 25.2396 49.6904 25.7969C50.4612 26.349 50.8466 27.2552 50.8466 28.5156C50.8466 29.7708 50.4612 30.6771 49.6904 31.2344C48.9248 31.7865 47.8024 32.0625 46.3232 32.0625H44.542C43.3701 32.0625 42.3805 31.7995 41.5732 31.2734C40.7711 30.7422 40.3701 30.0833 40.3701 29.2969ZM51.9791 26.3984C51.9791 25.3516 52.1224 24.4531 52.4088 23.7031C52.7005 22.9531 53.112 22.3672 53.6432 21.9453C54.6536 21.138 55.9713 20.7344 57.5963 20.7344H58.1432C59.7682 20.7344 61.0859 21.138 62.0963 21.9453C63.2057 22.8307 63.7604 24.3151 63.7604 26.3984C63.7604 28.4922 63.2057 29.9792 62.0963 30.8594C61.0859 31.6615 59.7682 32.0625 58.1432 32.0625H57.5963C55.9713 32.0625 54.6536 31.6615 53.6432 30.8594C52.5338 29.9792 51.9791 28.4922 51.9791 26.3984ZM57.8698 22.9453C55.9062 22.9453 54.9245 24.099 54.9245 26.4062C54.9245 28.7083 55.9062 29.8594 57.8698 29.8594C59.8333 29.8594 60.8151 28.7083 60.8151 26.4062C60.8151 24.099 59.8333 22.9453 57.8698 22.9453ZM65.807 25.125C65.2913 24.6615 65.0335 24.0312 65.0335 23.2344C65.0335 22.4323 65.2913 21.7995 65.807 21.3359C66.3278 20.8724 66.9762 20.6406 67.7523 20.6406C68.5335 20.6406 69.182 20.8724 69.6976 21.3359C70.2184 21.7995 70.4788 22.4323 70.4788 23.2344C70.4788 24.0312 70.2184 24.6615 69.6976 25.125C69.182 25.5885 68.5335 25.8203 67.7523 25.8203C66.9762 25.8203 66.3278 25.5885 65.807 25.125ZM65.6116 31.5625C65.6116 31.4844 65.6611 31.3854 65.7601 31.2656L73.5491 21.5391C73.9346 21.0495 74.3877 20.8021 74.9085 20.7969H76.1585C76.3616 20.7969 76.4918 20.8776 76.5491 21.0391C76.5648 21.0859 76.5726 21.151 76.5726 21.2344C76.5726 21.3177 76.5257 21.4193 76.432 21.5391L68.6351 31.2656C68.2497 31.7552 67.7965 32 67.2757 32H66.0257C65.7497 32 65.6116 31.8542 65.6116 31.5625ZM67.096 22.3984C66.9398 22.6016 66.8616 22.8802 66.8616 23.2344C66.8616 23.5833 66.9398 23.8594 67.096 24.0625C67.2575 24.2656 67.4762 24.3672 67.7523 24.3672C68.0335 24.3672 68.2523 24.2656 68.4085 24.0625C68.57 23.8594 68.6507 23.5833 68.6507 23.2344C68.6507 22.8802 68.57 22.6016 68.4085 22.3984C68.2523 22.1953 68.0335 22.0938 67.7523 22.0938C67.4762 22.0938 67.2575 22.1953 67.096 22.3984ZM72.4788 31.4453C71.9632 30.9818 71.7054 30.3516 71.7054 29.5547C71.7054 28.7526 71.9632 28.1198 72.4788 27.6562C72.9997 27.1927 73.6481 26.9609 74.4241 26.9609C75.2054 26.9609 75.8538 27.1927 76.3695 27.6562C76.8903 28.1198 77.1507 28.7526 77.1507 29.5547C77.1507 30.3516 76.8903 30.9818 76.3695 31.4453C75.8538 31.9089 75.2054 32.1406 74.4241 32.1406C73.6481 32.1406 72.9997 31.9089 72.4788 31.4453ZM73.7679 28.7188C73.6116 28.9219 73.5335 29.2005 73.5335 29.5547C73.5335 29.9036 73.6116 30.1797 73.7679 30.3828C73.9293 30.5859 74.1481 30.6875 74.4241 30.6875C74.7054 30.6875 74.9241 30.5859 75.0804 30.3828C75.2418 30.1797 75.3226 29.9036 75.3226 29.5547C75.3226 29.2005 75.2418 28.9219 75.0804 28.7188C74.9241 28.5156 74.7054 28.4141 74.4241 28.4141C74.1481 28.4141 73.9293 28.5156 73.7679 28.7188ZM95.3376 30.8438C94.2751 31.776 92.7126 32.2422 90.6501 32.2422C88.5928 32.2422 87.0303 31.776 85.9626 30.8438C84.8949 29.9062 84.361 28.4245 84.361 26.3984C84.361 24.3724 84.8949 22.8932 85.9626 21.9609C87.0303 21.0286 88.5928 20.5625 90.6501 20.5625C92.7126 20.5625 94.2751 21.0286 95.3376 21.9609C96.4053 22.8932 96.9391 24.3724 96.9391 26.3984C96.9391 28.4245 96.4053 29.9062 95.3376 30.8438ZM93.2048 23.6094C92.6787 22.9844 91.8272 22.6719 90.6501 22.6719C89.4782 22.6719 88.6266 22.9844 88.0954 23.6094C87.5693 24.2344 87.3063 25.1667 87.3063 26.4062C87.3063 27.6406 87.5693 28.5703 88.0954 29.1953C88.6266 29.8151 89.4782 30.125 90.6501 30.125C91.8272 30.125 92.6787 29.8151 93.2048 29.1953C93.7308 28.5703 93.9938 27.6406 93.9938 26.4062C93.9938 25.1667 93.7308 24.2344 93.2048 23.6094ZM98.8685 31.25V21.5234C98.8685 21.3203 98.9414 21.1484 99.0873 21.0078C99.2331 20.8672 99.4076 20.7969 99.6107 20.7969H108.619C108.822 20.7969 108.994 20.8698 109.134 21.0156C109.28 21.1615 109.353 21.3359 109.353 21.5391V22.2734C109.353 22.4766 109.28 22.651 109.134 22.7969C108.994 22.9375 108.822 23.0078 108.619 23.0078H101.814V25.7578H107.353C107.556 25.7578 107.728 25.8307 107.869 25.9766C108.014 26.1224 108.087 26.2943 108.087 26.4922V27.2344C108.087 27.4375 108.014 27.612 107.869 27.7578C107.728 27.8984 107.556 27.9688 107.353 27.9688H101.814V31.25C101.814 31.4635 101.741 31.6432 101.595 31.7891C101.454 31.9297 101.283 32 101.079 32H99.6107C99.4076 32 99.2331 31.9297 99.0873 31.7891C98.9414 31.6432 98.8685 31.4635 98.8685 31.25ZM110.954 31.25V21.5234C110.954 21.3203 111.027 21.1484 111.173 21.0078C111.319 20.8672 111.493 20.7969 111.696 20.7969H120.704C120.907 20.7969 121.079 20.8698 121.22 21.0156C121.366 21.1615 121.439 21.3359 121.439 21.5391V22.2734C121.439 22.4766 121.366 22.651 121.22 22.7969C121.079 22.9375 120.907 23.0078 120.704 23.0078H113.899V25.7578H119.439C119.642 25.7578 119.814 25.8307 119.954 25.9766C120.1 26.1224 120.173 26.2943 120.173 26.4922V27.2344C120.173 27.4375 120.1 27.612 119.954 27.7578C119.814 27.8984 119.642 27.9688 119.439 27.9688H113.899V31.25C113.899 31.4635 113.827 31.6432 113.681 31.7891C113.54 31.9297 113.368 32 113.165 32H111.696C111.493 32 111.319 31.9297 111.173 31.7891C111.027 31.6432 110.954 31.4635 110.954 31.25Z" fill="#6D6A62"/>
</g>
<defs>
<filter id="filter0_i_7108_1221" x="40.3691" y="20.5625" width="81.0703" height="12.6797" filterUnits="userSpaceOnUse" color-interpolation-filters="sRGB">
<feFlood flood-opacity="0" result="BackgroundImageFix"/>
<feBlend mode="normal" in="SourceGraphic" in2="BackgroundImageFix" result="shape"/>
<feColorMatrix in="SourceAlpha" type="matrix" values="0 0 0 0 0 0 0 0 0 0 0 0 0 0 0 0 0 0 127 0" result="hardAlpha"/>
<feOffset dy="1"/>
<feGaussianBlur stdDeviation="0.5"/>
<feComposite in2="hardAlpha" operator="arithmetic" k2="-1" k3="1"/>
<feColorMatrix type="matrix" values="0 0 0 0 0 0 0 0 0 0 0 0 0 0 0 0 0 0 0.25 0"/>
<feBlend mode="normal" in2="shape" result="effect1_innerShadow_7108_1221"/>
</filter>
<linearGradient id="paint0_linear_7108_1221" x1="34" y1="26" x2="134.5" y2="26" gradientUnits="userSpaceOnUse">
<stop offset="0.0384615" stop-color="#4D4D4D"/>
<stop offset="0.177885" stop-color="#857C66"/>
<stop offset="0.524038" stop-color="white"/>
<stop offset="0.701923" stop-color="#C2BEB3"/>
<stop offset="1" stop-color="#4D4D4D" stop-opacity="0.831373"/>
</linearGradient>
<radialGradient id="paint1_radial_7108_1221" cx="0" cy="0" r="1" gradientUnits="userSpaceOnUse" gradientTransform="translate(58 32) rotate(-11.3542) scale(126.985 333.076)">
<stop stop-color="white"/>
<stop offset="1" stop-color="#676767" stop-opacity="0.44"/>
</radialGradient>
<linearGradient id="paint2_linear_7108_1221" x1="80.666" y1="-4" x2="80.666" y2="57" gradientUnits="userSpaceOnUse">
<stop stop-color="white"/>
<stop offset="1" stop-color="#C7C7C7"/>
</linearGradient>
<linearGradient id="paint3_linear_7108_1221" x1="17" y1="26.5" x2="143" y2="26.5" gradientUnits="userSpaceOnUse">
<stop stop-color="#7A7A7A"/>
<stop offset="0.370192" stop-color="white"/>
<stop offset="1" stop-color="#555555"/>
</linearGradient>
</defs>
</svg>
